<?xml version="1.0" encoding="utf-8"?>
<!-- Generator: Adobe Illustrator 22.1.0, SVG Export Plug-In . SVG Version: 6.00 Build 0)  -->
<svg version="1.1" id="Layer_1" xmlns="http://www.w3.org/2000/svg" xmlns:xlink="http://www.w3.org/1999/xlink" x="0px" y="0px"
	 viewBox="0 0 1373 915" style="enable-background:new 0 0 1373 915;" xml:space="preserve">
<style type="text/css">
	.st0{fill:#F7F7F7;}
</style>
<rect x="0.2" y="0.1" width="1373.4" height="914.8"/>
<g>
	<g>
		<polygon class="st0" points="693.3,599.5 683.2,537.5 666.6,537.5 686.4,635.1 700.2,635.1 720.3,537.5 703.6,537.5 		"/>
		<polygon class="st0" points="736.1,635.1 779,635.1 779,619.3 751.9,619.3 751.9,593.4 775.6,593.4 775.6,578.4 751.9,578.4 
			751.9,552.5 779,552.5 779,537.5 736.1,537.5 		"/>
		<polygon class="st0" points="901.3,549.8 901.4,537.5 860,537.5 860,552.5 883.9,552.5 858.7,621.6 858.6,635.1 901.4,635.1 
			901.4,620.1 875.5,620.1 		"/>
		<path class="st0" d="M649.8,581.3c1.8-4.1,2.7-9,2.7-14.7c0-19.3-8.5-29.1-25.2-29.1h-23.1v97.6h15.8v-40.8h6.4l12.7,40.8h16.7
			L641,591C645.1,588.5,648.1,585.2,649.8,581.3z M636.4,572.5c-0.2,1.7-0.7,3.1-1.4,4.2c-0.7,1.1-1.6,1.9-2.8,2.5
			c-1.3,0.6-3.1,0.9-5.3,0.9h-6.7v-27.7h6.1c2.4,0,4.3,0.3,5.6,0.9c1.3,0.6,2.3,1.4,3.1,2.5c0.8,1.2,1.3,2.6,1.5,4.3
			c0.3,1.8,0.4,3.9,0.4,6.2C636.7,568.7,636.6,570.8,636.4,572.5z"/>
		<path class="st0" d="M841.4,581.3c1.8-4.1,2.7-9,2.7-14.7c0-19.3-8.5-29.1-25.2-29.1h-23.1v97.6h15.8v-40.8h6.4l12.7,40.8h16.7
			L832.5,591C836.7,588.5,839.7,585.2,841.4,581.3z M827.9,572.5c-0.2,1.7-0.7,3.1-1.4,4.2c-0.7,1.1-1.6,1.9-2.8,2.5
			c-1.3,0.6-3.1,0.9-5.3,0.9h-6.7v-27.7h6.1c2.4,0,4.2,0.3,5.6,0.9c1.3,0.5,2.3,1.4,3.1,2.5c0.8,1.2,1.3,2.6,1.5,4.3
			c0.3,1.8,0.4,3.9,0.4,6.2C828.3,568.7,828.2,570.8,827.9,572.5z"/>
		<path class="st0" d="M568.1,537.5H555l-21.8,97.6h15.9l4-20.5H570l4,20.5h15.9l-21.6-96.8L568.1,537.5z M555.9,599.6l5.6-28.7
			l5.6,28.7H555.9z"/>
		<polygon class="st0" points="503,578.4 488.2,578.4 488.2,537.5 472.4,537.5 472.4,635.1 488.2,635.1 488.2,592.6 503,592.6 
			503,635.1 518.8,635.1 518.8,537.5 503,537.5 		"/>
	</g>
	<g>
		<path class="st0" d="M759.4,312.5c-4.1-4.7-8.7-9-13.7-12.9c-16.2-12.4-36.6-19.8-58.7-19.8c-22.5,0-43.1,7.6-59.4,20.3
			c-5,3.9-9.5,8.2-13.6,13c-14,16.3-22.5,37.4-22.5,60.4c0,51.8,42.8,93.8,95.5,93.8s95.5-42,95.5-93.8
			C782.4,350.2,773.7,328.9,759.4,312.5z M686.9,448.7c-42.3,0-76.5-33.6-76.5-75.1c0-17.9,6.4-34.3,17-47.2
			c4-4.8,8.6-9.2,13.7-12.9c12.8-9.4,28.7-15,45.9-15c16.9,0,32.5,5.4,45.2,14.5c5.1,3.7,9.8,8,13.8,12.8
			c10.9,13,17.5,29.7,17.5,47.8C763.4,415.1,729.2,448.7,686.9,448.7z"/>
		<g>
			<polygon class="st0" points="716.8,375.7 705.5,384.1 716.8,391.7 728.2,384.1 			"/>
			<polygon class="st0" points="657.7,375.7 646.3,384.1 657.7,391.7 669,384.1 			"/>
			<path class="st0" d="M755.3,373.6c0-16-5.7-30.6-15.2-42.2c-4-4.9-8.7-9.2-13.9-12.8l-12.7,12.5l-27.2,26.7l-26.7-26.2
				l-12.7-12.5c-5.2,3.7-9.8,8-13.7,12.9c-9.2,11.4-14.6,25.8-14.6,41.5c0,30.5,20.8,56.3,49.2,64.4v-18.4
				c-18.5-7.4-31.6-25.2-31.6-46.1c0-10.9,3.6-20.9,9.6-29.1l31.7,31.1v47c0,0,0,0,0,0V440c0,0,0,0,0,0c3.1,0.4,6.3,0.6,9.5,0.6
				c3.2,0,6.4-0.2,9.5-0.6c0,0,0,0,0,0v-17.6c0,0,0,0,0,0v-48.2l31.1-30.6c6.3,8.3,10.1,18.6,10.1,29.8c0,20.7-12.9,38.4-31.2,45.9
				v18.4C734.7,429.6,755.3,404,755.3,373.6z"/>
		</g>
	</g>
</g>
</svg>
