<?xml version="1.0" encoding="UTF-8"?>
<svg id="Layer_1" xmlns="http://www.w3.org/2000/svg" xmlns:xlink="http://www.w3.org/1999/xlink" version="1.1" viewBox="0 0 900 900">
  <!-- Generator: Adobe Illustrator 29.5.1, SVG Export Plug-In . SVG Version: 2.1.0 Build 141)  -->
  <defs>
    <style>
      .st0, .st1 {
        font-family: BebasNeueBold, 'Bebas Neue';
        font-size: 72px;
      }

      .st1, .st2 {
        fill: #f4f3d3;
      }

      .st3 {
        fill: #5f578e;
      }
    </style>
    <path id="path" d="M657.39,748.15c0,61.55-86.76,111.45-193.78,111.45s-193.78-49.9-193.78-111.45,86.76-111.45,193.78-111.45,193.78,49.9,193.78,111.45Z"/>
    <path id="path1" d="M12.36,748.15c0,61.55-86.76,111.45-193.78,111.45s-193.78-49.9-193.78-111.45,86.76-111.45,193.78-111.45S12.36,686.6,12.36,748.15Z"/>
  </defs>
  <rect class="st3" width="900" height="900"/>
  <path class="st2" d="M-245.9,487.64l-13.9,8.1c-.7.4-1.7.2-2.1-.6l-29.9-51.3c-.4-.7-1.4-1-2.1-.6l-10.3,6c-.7.4-1,1.4-.6,2.1l37.3,64c.4.7,1.4,1,2.1.6l27-15.7c.7-.4,1-1.4.6-2.1l-5.9-10c-.4-.7-1.4-.9-2.2-.5Z"/>
  <path class="st2" d="M-215.6,489.74l-27.4-68.8c-.3-.8-1.2-1.2-2-.9l-11,4.4c-.8.3-1.2,1.2-.9,2l27.4,68.8c.3.8,1.2,1.2,2,.9l11-4.4c.9-.3,1.3-1.2.9-2Z"/>
  <path class="st2" d="M-182.4,481.84c2.3-.5,4.6-1.4,6.9-2.7s4.3-3.1,5.9-5.3,2.7-4.8,3.4-7.8c.7-3,.5-6.6-.4-10.6-.6-2.9-1.6-5.4-2.9-7.4s-2.7-3.8-4.2-5.1c-1.6-1.3-3.2-2.3-4.9-2.9-.5-.2-1.1-.3-1.6-.5,1.3-1.5,2.4-3.3,3.2-5.3,1.3-3.3,1.5-7.4.4-12.2-.9-4-2.3-7.1-4.2-9.4-1.9-2.3-4.1-3.9-6.5-4.9-2.3-1-4.8-1.5-7.4-1.5h0c-2.5,0-4.8.2-6.8.7l-18.1,4.1c-.8.2-1.4,1-1.2,1.9l16.3,72.3c.2.8,1,1.4,1.9,1.2l20.2-4.6ZM-196.2,420.24c1,.1,1.9.3,2.7.8.8.5,1.6,1.2,2.3,2.1.7,1,1.2,2.3,1.6,3.9h0c.4,1.6.4,3.1.2,4.3-.2,1.2-.6,2.2-1.1,3-.6.8-1.2,1.5-2.1,2s-1.8.9-2.8,1.1l-3.5.8c-.8.2-1.7-.3-1.9-1.2l-3.2-14c-.2-.8.3-1.7,1.2-1.9l3.3-.7c1.1-.2,2.2-.3,3.3-.2ZM-180.7,462.14c-.2,1.3-.6,2.4-1.2,3.3-.6.9-1.3,1.7-2.3,2.3s-2.1,1.1-3.3,1.3l-4.2,1c-.8.2-1.7-.3-1.9-1.2l-3.7-16.5c-.2-.8.3-1.7,1.2-1.9l3.9-.9c1-.2,2.1-.3,3.3-.2,1.1.1,2.2.5,3.2,1,1,.6,2,1.4,2.8,2.6.8,1.1,1.5,2.7,1.9,4.6h0c.4,1.8.5,3.3.3,4.6Z"/>
  <path class="st2" d="M-123.1,461.24l-17.8.9c-.9,0-1.6-.6-1.6-1.5l-.7-15.6c0-.9.6-1.6,1.5-1.6l15.3-.7c.9,0,1.5-.8,1.5-1.6l-.5-10.2c0-.9-.8-1.5-1.6-1.5l-15.3.7c-.9,0-1.6-.6-1.6-1.5l-.6-13.4c0-.9.6-1.6,1.5-1.6l16.8-.8c.9,0,1.5-.8,1.5-1.6l-.5-11.1c0-.9-.8-1.5-1.6-1.5l-31.3,1.5c-.9,0-1.5.8-1.5,1.6l3.6,74c0,.9.8,1.5,1.6,1.5l32.2-1.5c.9,0,1.5-.8,1.5-1.6l-.5-11.2c-.3-1.1-1.1-1.8-1.9-1.7Z"/>
  <path class="st2" d="M-89.5,446.94l1.2.2c.7.1,1.2.6,1.3,1.3l5.8,30.6c.1.7.7,1.2,1.3,1.3l12.3,1.8c1.1.2,2-.8,1.8-1.9l-6.9-32.7c-.2-.8.3-1.5,1-1.8.5-.2,1.1-.5,1.7-.8,1.6-.8,3-2,4.4-3.5s2.6-3.3,3.7-5.5c1.1-2.2,1.8-4.8,2.3-7.8.6-3.8.5-7.3-.1-10.2-.6-3-1.8-5.6-3.4-7.7-1.6-2.2-3.7-3.9-6.2-5.1-2.4-1.2-5.2-2-8.2-2.5l-19.7-2.9c-.9-.1-1.6.5-1.8,1.3l-10.6,73.3c-.1.9.5,1.6,1.3,1.8l11.3,1.6c.9.1,1.6-.5,1.8-1.3l4.1-28.2c-.1-.8.7-1.4,1.6-1.3ZM-86.7,416.54c.1-.9.9-1.4,1.8-1.3l3.5.5c1,.1,2,.5,3,.9.9.4,1.7,1,2.4,1.8.7.8,1.2,1.8,1.5,3.1.3,1.3.3,3,.1,5h0c-.5,3.4-1.6,5.8-3.4,7.1-1.8,1.4-3.9,1.9-6.3,1.5l-3.5-.5c-.9-.1-1.4-.9-1.3-1.8l2.2-16.3Z"/>
  <path class="st2" d="M-18.7,417.04l-11.3-3.7c-.8-.3-1.7.2-2,1l-23,70.4c-.3.8.2,1.7,1,2l11.3,3.7c.8.3,1.7-.2,2-1l23-70.4c.2-.9-.2-1.8-1-2Z"/>
  <path class="st2" d="M19.4,434.24l-50.2,57.2c-.7.8-.5,1.9.4,2.4l10.4,5.6c.6.3,1.4.2,1.9-.4l8.9-10.3c.5-.6,1.3-.7,1.9-.4l11.8,6.3c.6.3,1,1.1.8,1.8l-3.7,13.1c-.2.7.1,1.5.8,1.8l10.9,5.8c.9.5,2,0,2.2-1l19.9-73.4c.2-.7-.1-1.4-.8-1.8l-13.3-7.1c-.6-.3-1.4-.1-1.9.4ZM16,462.54l-5.6,18.5c-.3.9-1.4,1.4-2.2.9l-6.8-3.6c-.9-.5-1.1-1.6-.5-2.4l12.4-14.9c1.1-1.2,3.2-.1,2.7,1.5Z"/>
  <g>
    <path class="st2" d="M354.3,544.94s-14.4-9.8-16.6-10.9c-2.1-1.1-4.3.1-5.6,1.1-1.4,1-3.5,5.6-.6,9.1s20.9,11.7,20.9,11.7c-4-6.7,1.9-11,1.9-11Z"/>
    <path class="st2" d="M553.1,530.94c-4.2-.8-38.7-14.4-38.7-14.4,0,0-32.2-17.3-54.8-23.6,3.8,0,7.5-.7,8.7-1.5,1-.5,1.4-1.3,2.2-1.9-5.4-.7-10.8-3.1-13-4.3,3.2,1.1,10.6,1.3,15.5,1.5.3-.1.6.1.6-.2-5.7-2.2-15.1-8.1-15.1-8.1,8,4.5,17.8,5,20.2,3.8,1.4-.8,2.1-1.8,3.1-2.8-11.9-1-18-6.1-18-6.1,11.6,5.2,21.8,1.3,25-.1.6-.3,1-.5,1-.5h-.5c-8.2.2-18.5-4.5-18.5-4.5,4.3,1.5,17.8,3.5,20.7,2.5,1.7-.7,1.7-1.5,2.6-2.3-8.7-2.1-14.3-4.9-14.3-4.9,5.4,1.6,15.8,2.3,18.8.8,1.8-1.1,2.7-2.5,3.9-3.5-12.5-1.1-18-3.9-18-3.9,7,1.4,17.6,1.9,21.8.2.1,0,.3-.2.4-.2.8-.4,1.2-.7,1.6-1.1.7-.7,2.3-2.4,4.7-4.8-15.8,1.7-21-.4-21-.4,12.9.2,22.7-2,24.7-3.7,2.3-2.5,4.4-6.2,5.9-10.1-19.9,9.8-25,7.1-25,7.1,17.1-3.7,24.1-9.4,26.7-14.3.3-2.4.2-5-.3-7.7,0,0-2.6,9.7-46.1,24.3-34.3,11.5-38.5,20.5-37.9,37.8l.4,6.5v.6c-.4,0-.7.1-1.1.1l-.8-7.8c-1.9,2.1-6.9-.3-6.9-.3,9.8.6,6-5.8,6-5.8-2.6,1.7-4.2.7-4.2.7,5.2-1.8,2.4-5,2.3-5.3-2.6,2.3-6.9.3-6.9.3,7.6.6,4.5-3.9,4.7-4.7v-.1c-6,1.9-11.2-.6-11.2-.6,8.2.7,10.6-1.7,11.4-3.3.2-.6.2-.9.3-1.3-5.5,1.2-12.9-.6-12.9-.6,6.4-.2,13.6-2,15-3.6.8-.6.4-.7,1-1.4-.9-.1-1.1-.2-3.6-.1-8.8.3-13.6-.5-13.6-.5,3-.7,8.1-1.1,12.1-1.2,1.4,0,6.1-.2,8.2-1.5,1.2-.8,1.8-1.7,2.9-2.7-4.8-.4-9.5-1-11.8-1.7-.1,0-.1-.1,0-.1,5.6.4,12.7-.1,15.4-1.2,1.8-.9,3.3-2.6,4.9-3.9-6.9,0-11.1-.9-12.8-1.4-.2,0-.1-.3,0-.3,9,0,15-.7,17-1.9,1.8-1.2,3.1-2.8,4.5-4.3-10.5,2.7-13.6.4-13.6.4,8.6-1.1,15.6-3.2,17.3-5,1.7-2,3.2-5.6,3.9-8.9-10.9,8.9-16.9,8.3-18.3,7.9-.1,0-.1-.2,0-.2,13.8-4.3,17.9-11,18.8-16.1-.2-2-.5-4.1-1-6.4,0,0-8.9,15.7-31.1,22.8-22.3,7.1-30.9,17.9-32.3,20.1s-10.2,18.8,10.9,37l6.9,7.5c-9.6,3.4-17.2,7-20,6.2-4.9-1.5-11.5-4.5-20.2-.6s-8.7,11.8-8.7,11.8c-2.4,1.7-4.2,3.6-5.6,5.4l-10.4-5.8c-8.5,4.8-15.3,20.9-15.3,20.9l18,11.4s-1.2-.7-3.7,2.2c-3.1,3.5-.9,7.2,0,7.8,1.3.9,4.2,1.2,5.6.3,2-1.3,5.4-10.1,7.3-14.5,1.8-4.4,10.9-15.4,10.9-15.4l-8.8-4.9c1.8-1.2,4.3-2.4,6.2-2,3.6.8,11-.9,12.9-1.4s2.9-.3,7.3.1c4.5.4,17.1,6.7,18.1,7.3,1,.5,0,.5,2.4,3.1s23.5,10.3,22.9,10.4c-.6,0,.7,5.2,5.4,5.4,1.2,0,7.4.6,9.3,1,3.9.8,7.2-2.9,6.2-2.7-.7.1-10-.7-10.7-.8-4.8-.3-5.2-2-4.5-1.9.6.2,12.5,1.7,14.6,1.2s23.9-11.2,30.2-13.1c6.3-1.9,10.3.8,11.6,1.5s20,19.6,22,19.9c.5.1,2.4-.8,5.1-2.1l-14.4-11.8,1.8.4,13.9,10.3c1-.5,2.1-1.1,3.2-1.7l-16.1-10.7-2.2-1.5,2.9,1,17,10.3c1.1-.6,2.3-1.2,3.4-1.9l-19.1-11,1.7-.1,19.2,10.1c1.8-1,3.5-2,5.1-3l-19.9-8.5-19.1-7,20.2,6.6,20.9,7.6c3.7-2.4,6-4.3,4.7-4.6Z"/>
  </g>
  <text>
    <textPath startOffset="877.38%" xlink:href="#path"><tspan class="st1"><tspan x="0" y="0">LIBERIA APPAREL</tspan></tspan>
    </textPath></text>
  <ellipse class="st2" cx="695.47" cy="237.5" rx="115.52" ry="46.5"/>
  <text class="st1" transform="translate(357.45 718.78)"><tspan x="0" y="0">COMPANY</tspan></text>
  <text>
    <textPath startOffset="743.21%" xlink:href="#path1"><tspan class="st0"><tspan x="0" y="0">LIBERIA APPAREL</tspan></tspan>
    </textPath></text>
  <text class="st0" transform="translate(-287.57 718.78)"><tspan x="0" y="0">COMPANY</tspan></text>
</svg>