<?xml version="1.0" encoding="utf-8"?>
<!-- Generator: Adobe Illustrator 22.1.0, SVG Export Plug-In . SVG Version: 6.00 Build 0)  -->
<svg version="1.1" id="Layer_1" xmlns="http://www.w3.org/2000/svg" xmlns:xlink="http://www.w3.org/1999/xlink" x="0px" y="0px"
	 viewBox="0 0 900 900" style="enable-background:new 0 0 900 900;" xml:space="preserve">
<style type="text/css">
	.st0{fill:#2D3343;}
	.st1{fill:url(#SVGID_1_);}
	.st2{fill:url(#SVGID_2_);}
	.st3{fill:#EFB233;}
	.st4{fill:url(#SVGID_3_);}
	.st5{fill:url(#SVGID_4_);}
</style>
<rect class="st0" width="900" height="900"/>
<g>
	<g>
		
			<linearGradient id="SVGID_1_" gradientUnits="userSpaceOnUse" x1="417.4" y1="233.75" x2="483.3" y2="233.75" gradientTransform="matrix(1 0 0 1 0 108)">
			<stop  offset="0" style="stop-color:#FFFFFF"/>
			<stop  offset="0.2167" style="stop-color:#FCFCFC"/>
			<stop  offset="0.3741" style="stop-color:#F3F3F3"/>
			<stop  offset="0.5127" style="stop-color:#E3E3E4"/>
			<stop  offset="0.6405" style="stop-color:#CCCDCE"/>
			<stop  offset="0.7609" style="stop-color:#B0B0B2"/>
			<stop  offset="0.8757" style="stop-color:#8C8D8F"/>
			<stop  offset="0.9842" style="stop-color:#636467"/>
			<stop  offset="1" style="stop-color:#5C5D60"/>
		</linearGradient>
		<rect x="417.4" y="293.3" class="st1" width="65.9" height="96.9"/>
		
			<linearGradient id="SVGID_2_" gradientUnits="userSpaceOnUse" x1="417.4" y1="396.45" x2="483.3" y2="396.45" gradientTransform="matrix(1 0 0 1 0 108)">
			<stop  offset="2.703434e-02" style="stop-color:#C3996B"/>
			<stop  offset="0.1603" style="stop-color:#C39767"/>
			<stop  offset="0.2945" style="stop-color:#C1925B"/>
			<stop  offset="0.4293" style="stop-color:#BF8947"/>
			<stop  offset="0.5636" style="stop-color:#BC7D2B"/>
			<stop  offset="0.614" style="stop-color:#BB781E"/>
			<stop  offset="0.9975" style="stop-color:#5D3800"/>
		</linearGradient>
		<rect x="417.4" y="390.2" class="st2" width="65.9" height="228.5"/>
		<g>
			<path class="st3" d="M459.3,520.9c0,0-12.2,0.8-10,3.6s4.5,6.4,6.6,3.9C458.2,525.9,463.8,521.7,459.3,520.9z"/>
			<path class="st3" d="M458.5,544.4c-2.3,1.5-4.8,2.4-2.5,3.6c2.3,1.3,4.3-2.9,6.2-1.8c1.9,1.1,6.5,1.3,6.5,0.1
				S461.8,542.2,458.5,544.4z"/>
			<path class="st3" d="M435.8,467c-3.1-0.3-5.7-1-5.7,1s6,0.5,6,2.1s2.6,4.3,4,3.5C441.4,472.9,440.4,467.3,435.8,467z"/>
			<path class="st3" d="M424.5,517.5c-1.2,3.5-3.3,5,0,7.5s8.4-1.5,7.2-3.7S426.1,513,424.5,517.5z"/>
			<path class="st3" d="M424.5,601.1c-1.2,1.7-3.3,2.5,0,3.7c3.3,1.3,8.4-0.7,7.2-1.9C430.3,601.9,426.1,598.9,424.5,601.1z"/>
			<path class="st3" d="M443.6,536.4c-5.3,0.2-8.1-0.9-10.6,2.3s5,5.8,7.7,4.2C443.4,541.1,450.4,536.2,443.6,536.4z"/>
			<path class="st3" d="M463.7,605.4c-5.3,0.2-8.1-0.9-10.6,2.3s5,5.8,7.7,4.2C463.5,610.2,470.6,605.2,463.7,605.4z"/>
			<ellipse class="st3" cx="420.5" cy="535.2" rx="1.6" ry="1.1"/>
			<ellipse class="st3" cx="429.9" cy="570.7" rx="2.6" ry="1.7"/>
			<ellipse class="st3" cx="449.2" cy="593.5" rx="2.6" ry="1.7"/>
			<path class="st3" d="M459.6,394.4c0,0-12.2,0.8-10,3.6c2.2,2.8,4.5,6.4,6.6,3.9C458.5,399.4,464.1,395.3,459.6,394.4z"/>
			<path class="st3" d="M458.7,417.9c-2.3,1.5-4.8,2.4-2.5,3.6c2.3,1.3,4.3-2.9,6.2-1.8c1.9,1.1,6.5,1.3,6.5,0.1
				C469,418.6,462.1,415.7,458.7,417.9z"/>
			<path class="st3" d="M439.3,493.3c-3.1-0.3-5.7-1-5.7,1s6,0.5,6,2.1s2.6,4.3,4,3.5C444.8,499.1,443.9,493.6,439.3,493.3z"/>
			<path class="st3" d="M424.7,474.7c-1.2,1.7-3.3,2.5,0,3.7c3.3,1.3,8.4-0.7,7.2-1.9C430.6,475.4,426.3,472.4,424.7,474.7z"/>
			<path class="st3" d="M443.8,409.9c-5.3,0.2-8.1-0.9-10.6,2.3c-2.5,3.2,5,5.8,7.7,4.2C443.7,414.6,450.7,409.7,443.8,409.9z"/>
			<ellipse class="st3" cx="420.7" cy="408.7" rx="1.6" ry="1.1"/>
			<ellipse class="st3" cx="430.2" cy="444.2" rx="2.6" ry="1.7"/>
			<path class="st3" d="M443.5,510.2c-1.2,1.7-3.3,2.5,0,3.7c3.3,1.3,8.4-0.7,7.2-1.9S445.1,508,443.5,510.2z"/>
			<path class="st3" d="M462.6,445.4c-5.3,0.2-8.1-0.9-10.6,2.3c-2.5,3.2,5,5.8,7.7,4.2C462.4,450.3,469.5,445.3,462.6,445.4z"/>
			<ellipse class="st3" cx="439.5" cy="444.4" rx="1.6" ry="1.1"/>
			<ellipse class="st3" cx="449.3" cy="467.1" rx="2.6" ry="1.7"/>
			<path class="st3" d="M475.8,583.6c0,0-12.2,0.8-10,3.6s4.5,6.4,6.6,3.9C474.7,588.5,480.2,584.4,475.8,583.6z"/>
			<path class="st3" d="M468.7,528.5c-1.2,3.5-3.3,5,0,7.5s8.4-1.5,7.2-3.7C474.5,529.9,470.2,524,468.7,528.5z"/>
			<path class="st3" d="M468.7,476c-1.2,1.7-3.3,2.5,0,3.7c3.3,1.3,8.4-0.7,7.2-1.9C474.6,476.6,470.2,473.7,468.7,476z"/>
		</g>
		<path d="M484.4,297.3v-2.2c0,0,0.5-0.4,1.2-1c-0.2-0.3-0.4-0.7-0.6-1.2c-0.6-1.1-1.2-1.9-1.6-2.4c-0.2-0.2-0.4-0.5-0.4-1
			s-0.1-0.9-0.4-1.4c-0.2-0.6-0.5-1.3-0.6-1.7l-1-1c-0.2-0.2-0.5-0.5-1-0.6c0,0.5-0.1,1.4-0.4,2.9c-0.2,1.5-0.4,2.5-0.4,2.9
			c0,0.2-0.2,0.5-0.5,0.6c-0.4,0.2-0.6,0.5-0.8,0.6H476h-2.3c-0.9,0-1.3-0.5-1.3-1.4c0-0.5-0.2-0.9-0.5-1.5
			c-0.4-0.5-0.6-1.1-0.8-1.5h-0.6H470c-0.2,0.2-0.6,0.5-1.3,1c-0.6,0.5-1.2,0.6-1.6,0.6h-1.3h-1.2l-0.6-0.6c-0.2-0.2-0.4-0.5-0.4-1
			H463h-1c-0.2,0.2-0.9,0.5-1.9,1c-1.1,0.5-1.7,0.6-1.9,0.6h-2.9l-1.3,0.6l-0.6,0.4c-0.2,0-0.4,0.1-0.4,0.4l-0.6,0.4h-0.6
			c-0.2,0-0.4-0.1-0.4-0.4l-3.9-5.7h-1.3c-0.2-0.2-0.6-0.5-1.3-0.8c-0.6-0.4-1.2-0.5-1.6-0.5c-0.2-0.2-0.5-0.4-0.6-0.4l-0.6,0.4
			c0,0.2-0.2,1-0.5,2.2c-0.4,1.3-0.6,1.8-0.8,1.8c-0.6,1.1-1.1,1.7-1.3,1.7l-4.8-5c-1.6,0.7-3.8,2.2-3.8,2.2s-3.5-2.8-3.4-1.2
			c0.2,1.6,0,2.5,0,2.5l-4,1.9h-1.6l-4.5,2.4v23.7c0.2,0,0.4-0.1,0.5-0.2s0.3-0.2,0.5-0.2h1.6c0.5,0,1.1,0,1.9,0s1.4,0.1,1.6,0.4
			c0.2,0,0.6,0.5,1.1,1.5s0.9,1.8,1.1,2.5l0.4,0.6c0,0.2-0.1,0.4-0.2,0.4s-0.2,0.1-0.2,0.4v0.4l-1.3,1.4c0-0.5-0.3-1.2-0.8-2.2
			s-1-1.7-1.5-2.2s-1.4-1-2.7-1.5c-0.9-0.4-1.5-0.6-2.1-0.8v5.5h0.6c0.5,0.2,1.5,0.9,3.3,2c1.7,1.1,2.8,1.7,3.3,1.7
			c0,0.2,0.1,0.4,0.4,0.4h0.6l0.4-0.4c0.2,0,0.5-0.2,0.8-0.5s0.6-0.5,0.8-0.5l0.6-0.4c0.2,0.2,0.5,0.4,0.6,0.4h0.4
			c0,0.5,0.1,0.9,0.4,1.4l0.6,1.4c0.2,0.2,0.5,0.4,0.6,0.4c0.2,0.2,0.5,0.4,0.6,0.4c0.5,0,0.7-0.1,1-0.4c0.2,0,0.5-0.1,0.6-0.4
			c0-0.5,0.1-1.2,0.4-2.2c0.2-1,0.5-1.6,0.6-1.8h0.6c0.2,0.2,0.5,0.4,0.6,0.4v3.7c0.5-0.5,1-0.8,1.6-1s1.1-0.5,1.3-0.6h1.3h1.3
			c0.5,0.2,1.2,0.5,2.3,1c1.1,0.5,1.7,0.6,1.9,0.6c1.7,0.5,3.5,0.6,5.2,0.6h3.5V322c0.5-0.2,0.8-0.4,1.3-0.4h1.6
			c0.5,0,1,0.1,1.6,0.4c0.6,0.2,1.2,0.5,1.6,1c0,0.2,0.1,0.8,0.4,1.8c0.2,1,0.5,1.7,0.6,2.2h2.3h2.9c0.8-0.5,1.3-1,1.3-1.7
			c-0.2,0-0.5-0.1-0.6-0.4l-0.6-0.6c0-0.2-0.6-0.5-1.8-0.6c-1.2-0.2-1.9-0.5-2.1-0.6c0-0.5-0.1-1.3-0.4-2.5c-0.2-1.3-0.5-1.8-1-1.8
			c-0.2-0.2-1.1-0.3-2.6-0.2c-1.5,0.1-2.5,0.2-2.9,0.2c-0.2-0.2-0.8-0.6-1.8-1.2c-1-0.5-1.6-1.1-2.1-1.5l-0.4-0.6l0.4-0.6l1.3-0.6
			c0.5-0.2,0.7-0.4,1-0.4c0.2,0,0.5-0.1,0.6-0.4c0.2-0.2,0.5-0.6,0.6-1.4c0.2-0.6,0.4-1.3,0.4-1.7l8.4,4.4c0-0.2,0.1-0.6,0.4-1.4
			c0.2-0.6,0.5-1.1,0.6-1.4c0.2,0,0.4-0.1,0.4-0.4c0-0.2,0.1-0.5,0.4-0.6l0.6-0.6c0.5,0,1.2-0.4,2.3-1.2c1.1-0.8,1.7-1.3,1.9-1.5
			c0.2-0.5,0.7-1.8,1.5-4.2c0.7-2.4,1.1-3.7,1.1-4.2l1.3-1.4v11.2c0.2,0.2,0.5,0.5,0.6,0.8c0.2,0.4,0.5,0.5,0.6,0.5v1v0.6l-1.3,1.4
			c-0.2,0.2-0.4,0.5-0.4,0.6v0.6h6.5c0-0.2,0.1-0.6,0.2-1.4c0.1-0.6,0.3-1.1,0.5-1.4c0.2-0.2,0.5-0.7,0.6-1.5
			c0.2-0.8,0.5-1.3,0.6-1.5c0-0.2,0.5-0.6,1.3-1.4c0.8-0.6,1.4-1.1,1.6-1.4c0.2-0.2,0.4-0.5,0.4-0.6l-0.4-0.6
			c-0.2-0.2-0.6-0.6-1.1-1.4c-0.5-0.6-0.7-1.3-0.5-1.7c0-0.2,0.4-0.5,1.2-1l-1.4-1.2L484.4,297.3z M427.3,301.5
			c0-0.2,0.2-0.5,0.6-0.6c0.5-0.2,0.7-0.4,1-0.4c0-0.2,0.1-0.4,0.4-0.4h0.6v1.4H427.3z M429.9,317.1l1.3-2.7l1.6,1.4L429.9,317.1z
			 M436.7,300.5l-0.6,0.6c-0.2,0.2-0.5,0.4-1,0.4c-0.2,0-0.5-0.1-0.6-0.4l-0.6-0.6c0-0.2-0.1-0.5-0.2-0.8c-0.1-0.4-0.2-0.6-0.2-0.8
			h3.5C437.1,299.7,437,300.3,436.7,300.5z M444.8,322.8h-1.6v-1.4h1.6V322.8z M447.4,315.7h-1.3h-1.3l1.3-4.1l2.6,2.7L447.4,315.7z
			 M464.8,300.6c-0.1,0.4-0.2,0.6-0.2,0.8c-0.2,0.6-0.5,1.5-0.6,2.5c-0.2,1-0.5,2-1,2.9s-0.7,1.9-1,3h-2.3c0-0.5,0.1-1.5,0.4-3.4
			c0.2-1.8,0.5-2.9,0.6-3.4c0.2,0,0.6-0.4,1.3-1.2c0.6-0.8,1.2-1.3,1.6-1.5c0-0.5,0.5-0.6,1.3-0.6
			C465,300.1,464.9,300.3,464.8,300.6z M467.2,298.8c-0.5,0.2-0.6,0-0.6-0.6s0.2-0.9,0.6-0.6c0.5,0.2,0.6,0.5,0.6,0.8
			C467.9,298.6,467.6,298.8,467.2,298.8z"/>
	</g>
	
		<linearGradient id="SVGID_3_" gradientUnits="userSpaceOnUse" x1="212.6" y1="373.2" x2="396.3" y2="373.2" gradientTransform="matrix(1 0 0 1 0 108)">
		<stop  offset="0.2353" style="stop-color:#BB781E"/>
		<stop  offset="0.3038" style="stop-color:#BC7E2B"/>
		<stop  offset="0.4768" style="stop-color:#BF8A47"/>
		<stop  offset="0.6509" style="stop-color:#C1925B"/>
		<stop  offset="0.8252" style="stop-color:#C39767"/>
		<stop  offset="1" style="stop-color:#C3996B"/>
	</linearGradient>
	<path class="st4" d="M212.6,344.2h80c24,0,43.9,5.6,59.7,16.9c15.8,11.3,27.2,27.3,33.9,48.1c6.7,20.8,10.1,43.8,10.1,69
		c0,42.2-9.5,76.2-28.5,101.7c-19.1,25.5-47,38.3-83.8,38.3h-71.2L212.6,344.2L212.6,344.2z M276.3,397.5v167.1h4.5
		c33.1,0,49.7-30,49.7-90c0-23.2-3.5-41.8-10.7-56s-18.8-21.2-35.1-21.2h-8.4V397.5z"/>
	
		<linearGradient id="SVGID_4_" gradientUnits="userSpaceOnUse" x1="505.1999" y1="373.3" x2="688.9" y2="373.3" gradientTransform="matrix(1 0 0 1 0 108)">
		<stop  offset="2.703434e-02" style="stop-color:#C3996B"/>
		<stop  offset="0.1603" style="stop-color:#C39767"/>
		<stop  offset="0.2945" style="stop-color:#C1925B"/>
		<stop  offset="0.4293" style="stop-color:#BF8947"/>
		<stop  offset="0.5636" style="stop-color:#BC7D2B"/>
		<stop  offset="0.614" style="stop-color:#BB781E"/>
	</linearGradient>
	<path class="st5" d="M616.6,397.5h6.3h2.2h63.8v-53.2h-80c-24,0-43.9,5.6-59.7,16.9s-27.2,27.3-33.9,48.1
		c-6.7,20.8-10.1,43.8-10.1,69c0,42.2,9.5,76.2,28.5,101.7c19.1,25.5,47,38.3,83.8,38.3h71.2v-54H625v0.4h-4.5
		c-27.3,0-43.4-20.5-48.2-61.5h116.5v-52H572.3c1.6-12.6,4.7-23.4,9.3-32.3C588.7,404.6,600.3,397.5,616.6,397.5z"/>
</g>
</svg>
