<?xml version="1.0" encoding="utf-8"?>
<!-- Generator: Adobe Illustrator 22.1.0, SVG Export Plug-In . SVG Version: 6.00 Build 0)  -->
<svg version="1.1" id="Layer_1" xmlns="http://www.w3.org/2000/svg" xmlns:xlink="http://www.w3.org/1999/xlink" x="0px" y="0px"
	 viewBox="0 0 900 900" style="enable-background:new 0 0 900 900;" xml:space="preserve">
<style type="text/css">
	.st0{fill:#B4CEB4;}
	.st1{fill:#FFFFFF;}
	.st2{fill:#ED1A3B;}
	.st3{fill:#004FA3;}
</style>
<rect y="0.1" class="st0" width="900" height="900"/>
<g>
	<g>
		<rect x="395.2" y="332" class="st1" width="103.7" height="106.3"/>
		<rect x="447" y="339.2" class="st2" width="44.6" height="92.4"/>
		<polygon class="st3" points="451.5,431.8 402.7,431.8 402.7,339.2 447.3,339.2 447.3,425.9 		"/>
		<path class="st1" d="M472,379.2v1.2c10.6,1,11.4,5.7,11.4,15.9v8.5c0,9.9,1.6,26.5-14.8,26.5c-20.8,0-18.4-20.8-18.4-22.4v-16.5
			c0-8.9,0.9-10.5,11-12v-1.2h-27.1v1.2c9.2,1.3,9.3,3.7,9.4,12v18.1c0,6.4-2.4,24.5,21.2,24.5c16.9,0,21.1-10.5,21.3-21l0.4-17.6
			c0.3-10.6,0.8-15.2,7.7-15.9v-1.2H472V379.2z"/>
		<path class="st1" d="M440.9,401.9v-1.5c-14.2-2.1-12.8-5.5-4.7-25.8l11.1-28.1l15,38.3c2.4,6.3,6.8,14.2-6.4,15.6v1.5h29.6v-1.5
			c-8.3-1-10.5-7.4-13.3-14.6L451,332.1h-1.3l-17.9,45.2c-5.8,14.4-8.5,22.2-17.3,23v1.5L440.9,401.9L440.9,401.9z"/>
	</g>
	<g>
		<path class="st1" d="M284.3,498.8c-6.5,0-10.6-2-12.1-2.8c-0.9-1.7-2-7.2-2.1-10.8c0.4-0.5,1.5-0.7,1.9-0.3
			c1.2,3.9,4.4,11.6,13.3,11.6c6.5,0,9.7-4.3,9.7-8.9c0-3.4-0.7-7.2-6.3-10.8l-7.4-4.8c-3.9-2.6-8.4-6.9-8.4-13.3
			c0-7.4,5.7-13.3,15.8-13.3c2.4,0,5.1,0.3,7.2,1c1,0.3,2.1,0.4,2.7,0.4c0.7,1.9,1.4,6.2,1.4,9.4c-0.3,0.4-1.5,0.7-2,0.3
			c-1-3.7-3.1-8.7-10.5-8.7c-7.5,0-9.2,5.1-9.2,8.6c0,4.5,3.7,7.6,6.6,9.5l6.2,3.9c4.9,3,9.7,7.5,9.7,14.8
			C300.9,492.9,294.4,498.8,284.3,498.8z"/>
		<path class="st1" d="M316.1,458.3c4.8-3.8,11-5.7,17.9-5.7c3.6,0,8.7,0.7,11.7,1.6c0.8,0.2,1.3,0.3,1.9,0.3
			c0.1,1.5,0.4,5.7,0.9,9.8c-0.3,0.4-1.3,0.5-1.8,0.2c-1-4.5-3.9-9.7-13.6-9.7c-10.1,0-18.8,6.4-18.8,20.1
			c0,13.9,8.8,21.6,19.7,21.6c8.6,0,12.3-5.6,13.9-9.5c0.4-0.3,1.5-0.2,1.7,0.3c-0.4,3.4-2.2,7.8-3.2,9.1c-0.8,0.2-1.6,0.4-2.3,0.7
			c-1.5,0.5-6.3,1.5-10.5,1.5c-6,0-11.7-1.2-16.5-4.5c-5.3-3.7-9.4-9.7-9.4-18.2C307.7,468.5,311.1,462.3,316.1,458.3z"/>
		<path class="st1" d="M368.2,476.1c-3.2,0-3.3,0.2-3.3,2.1v9.3c0,6.9,0.3,7.9,4,8.3l1.9,0.2c0.4,0.3,0.3,1.5-0.2,1.6
			c-3.6-0.2-5.8-0.2-8.4-0.2c-2.8,0-5.1,0.2-7.7,0.2c-0.4-0.2-0.5-1.3-0.2-1.6l1.1-0.2c3.7-0.7,3.9-1.4,3.9-8.3v-23.8
			c0-6.9-0.4-8.1-3.9-8.3l-1.7-0.2c-0.4-0.3-0.3-1.5,0.2-1.6c3.3,0.1,5.5,0.2,8.3,0.2c2.6,0,4.8-0.1,7.7-0.2
			c0.4,0.2,0.5,1.4,0.2,1.6l-1.3,0.2c-3.9,0.4-3.9,1.4-3.9,8.3v7.6c0,2.1,0.2,2.1,3.3,2.1H387c3.2,0,3.3-0.1,3.3-2.1v-7.6
			c0-6.9-0.2-8-4-8.3l-1.3-0.2c-0.4-0.3-0.3-1.5,0.2-1.6c3.1,0.2,5.3,0.2,8.1,0.2c2.6,0,4.8-0.1,7.8-0.2c0.4,0.2,0.5,1.4,0.2,1.6
			l-1.4,0.2c-3.9,0.4-3.9,1.4-3.9,8.3v23.8c0,6.9,0.2,7.8,3.9,8.3l1.6,0.2c0.4,0.3,0.3,1.5-0.2,1.6c-3.2-0.2-5.4-0.2-8.1-0.2
			s-5.1,0.1-8.1,0.2c-0.4-0.2-0.5-1.3-0.2-1.6l1.3-0.2c4-0.5,3.9-1.4,4-8.3v-9.3c0-2-0.2-2.1-3.3-2.1H368.2z"/>
		<path class="st1" d="M407.4,476.1c0-13.3,9.9-23.4,23.6-23.4c15.3,0,23,11.1,23,22.7c0,13.4-10.2,23.1-23,23.1
			C416.3,498.6,407.4,488,407.4,476.1z M447.4,477.5c0-11-4.8-22.7-17.5-22.7c-6.9,0-15.8,4.7-15.8,19.2c0,9.8,4.8,22.5,17.8,22.5
			C439.8,496.5,447.4,490.5,447.4,477.5z"/>
		<path class="st1" d="M460.1,476.1c0-13.3,9.9-23.4,23.6-23.4c15.3,0,23,11.1,23,22.7c0,13.4-10.2,23.1-23,23.1
			C469,498.6,460.1,488,460.1,476.1z M500.1,477.5c0-11-4.8-22.7-17.5-22.7c-6.9,0-15.8,4.7-15.8,19.2c0,9.8,4.8,22.5,17.8,22.5
			C492.5,496.5,500.1,490.5,500.1,477.5z"/>
		<path class="st1" d="M518.3,463.7c0-6.9-0.2-8.1-4.3-8.3l-1.6-0.2c-0.4-0.3-0.3-1.5,0.2-1.6c3.7,0.2,6,0.2,8.7,0.2
			c2.6,0,4.8-0.1,8.1-0.2c0.4,0.2,0.5,1.4,0.2,1.6l-1.6,0.2c-3.9,0.3-4,1.4-4,8.3v23c0,4.2,0.2,5.9,1.4,7.2c0.8,0.8,2,1.5,7.2,1.5
			c5.7,0,7-0.3,8.1-0.9c1.3-0.8,3.1-3.2,4.4-6.6c0.4-0.3,1.6-0.1,1.6,0.4c0,0.8-1.9,7.5-2.7,9.3c-3.3-0.2-9.7-0.2-16.5-0.2h-6.1
			c-2.7,0-4.9,0.1-8.7,0.2c-0.4-0.2-0.5-1.3-0.2-1.6l2-0.2c3.9-0.4,3.9-1.4,3.9-8.3L518.3,463.7L518.3,463.7z"/>
		<path class="st1" d="M591.9,478.8c-0.2,3.7-2.1,10-7,15.1c-4.1,4.3-7.7,4.5-9.5,4.5c-4.3,0-7-3.1-6.6-8.8
			c0.3-4.1,2.7-10.5,7.2-14.8c3.4-3.3,6.4-4.3,9.2-4.3C589.8,470.5,592.1,474,591.9,478.8z M579.8,475.6c-3.9,5.1-6.4,13-6.6,16.5
			c-0.2,2.3,0.8,4.3,2.7,4.3c1.5,0,3.1-0.6,5.2-3.4c2.9-3.9,6-12.7,6.2-16.2c0.1-2.1-0.3-4.4-2.7-4.4
			C583.3,472.5,581.8,473.1,579.8,475.6z"/>
		<path class="st1" d="M607.8,473.8c-0.4,1.1-0.9,3.3-1.5,5.2c-2.1,7.4-4,14.7-6.3,22c-1.9,6-3.9,9.6-5.2,10.9
			c-0.8,0.8-3.7,3.3-7.5,3.3c-3.1,0-4.3-2.2-4.3-3.3c0-1.5,0.8-2.1,1.3-2.4c0.9-0.8,1.4-0.3,1.9,0.6c0.9,1.5,2.7,2.5,3.9,2.5
			s2.7-1,4.2-5.5c3.3-11.1,5.6-22.4,8.7-33.2h-5.5c-0.7-0.6-0.4-1.9,0.4-2.5h5.7c1.7-6,3.4-11.1,7.4-15.8c3.3-3.9,7.2-5.5,11.1-5.5
			c2.8,0,5.4,1.7,5.4,4.4c0,2.1-1.8,4.1-2.8,4.1c-0.6,0-0.9-0.6-0.9-1c-0.2-3.9-2.3-5.1-4-5.1c-1.9,0-3.6,1.3-5.1,3.6
			c-3.1,4.5-4.5,9.8-6.3,15.4h8.3c0.4,0.8,0.3,1.7-0.7,2.5h-8.2L607.8,473.8L607.8,473.8z"/>
		<path class="st1" d="M213.2,555.6c0,8.1,0.2,9.1,5.1,9.6l2.1,0.3c0.4,0.3,0.3,1.7-0.2,1.9c-4.4-0.2-6.9-0.3-9.9-0.3
			c-3.3,0-6,0.1-9.3,0.3c-0.4-0.3-0.6-1.5-0.2-1.9l1.6-0.3c4.5-0.6,4.6-1.5,4.6-9.6v-28.3c0-6.5-0.2-7.9-3.6-8.2l-2.7-0.3
			c-0.5-0.4-0.4-1.6,0.2-1.9c4-0.5,8.8-0.6,15.2-0.6s11.1,0.9,14.7,3.1c3.5,2.2,6.2,6.2,6.2,11.5c0,7-4.4,10.5-7.6,12.2
			c-3.3,1.6-7.5,2.3-10.5,2.3c-0.5-0.3-0.5-1.4-0.1-1.5c8.3-1.5,11.2-6.2,11.2-12.8c0-7.5-4.4-12.2-12.3-12.2c-4,0-4.1,0.3-4.1,2.7
			v34.2L213.2,555.6L213.2,555.6z"/>
		<path class="st1" d="M278.9,540.2c0-4-0.2-11.7-1.3-13.6c-0.4-0.8-1.6-1.3-3.3-1.4l-1.6-0.2c-0.4-0.4-0.3-1.3,0.2-1.5
			c2.5,0.2,4.9,0.2,7.5,0.2c2.7,0,4.5-0.1,6.9-0.2c0.5,0.3,0.4,1.2,0.2,1.5l-1.5,0.2c-1.6,0.2-3,0.7-3.3,1.5
			c-1,2.1-0.9,9.7-0.9,13.4v7.5c0,5.7-0.9,11.7-4.6,15.7c-2.8,3.1-7.7,4.8-12.5,4.8c-4.5,0-9.1-0.9-12.2-3.6
			c-3.5-2.9-5.1-7.7-5.1-15.5v-15.5c0-6.9-0.2-8-3.9-8.3l-1.6-0.2c-0.4-0.3-0.3-1.4,0.2-1.5c3.3,0.2,5.5,0.2,8.1,0.2
			c2.7,0,4.9-0.1,8.1-0.2c0.4,0.2,0.5,1.3,0.2,1.5l-1.5,0.2c-3.8,0.3-3.9,1.5-3.9,8.3v14.2c0,10.5,3.3,17.6,13.4,17.6
			c9.5,0,13.1-7.5,13.1-17.5v-7.5h-0.7L278.9,540.2L278.9,540.2z"/>
		<path class="st1" d="M296.6,532.3c0-4.9-0.3-6.1-3.3-6.3l-2.1-0.2c-0.5-0.4-0.4-1.4,0.1-1.6c3.5-0.3,8.1-0.5,14.1-0.5
			c4.1,0,8.1,0.3,11.1,1.8c2.8,1.4,5,4,5,8.2c0,4.7-2.7,7.2-6.7,9c0,0.7,0.5,0.9,1.3,1c3.5,0.7,8.8,3.9,8.8,11
			c0,7.6-5.7,12.8-17.5,12.8c-1.9,0-5.1-0.2-7.9-0.2c-2.9,0-5.1,0.2-7.5,0.2c-0.4-0.2-0.5-1.3-0.2-1.6l1.2-0.2
			c3.5-0.5,3.6-1.3,3.6-8.2V532.3z M302,541.1c0,1.8,0.1,2,3.4,1.8c6.7-0.3,10.3-2.2,10.3-8.4c0-6.4-4.8-8.8-9.8-8.8
			c-1.5,0-2.4,0.2-3,0.4c-0.7,0.2-0.9,0.5-0.9,1.7V541.1z M302,556.3c0,2.4,0.2,5.7,1.4,7.2c1.3,1.5,3.3,1.8,5.2,1.8
			c5.8,0,10.3-2.7,10.3-9.2c0-5.2-2.7-11.2-13-11.2c-3.5,0-3.8,0.4-3.8,1.7L302,556.3L302,556.3z"/>
		<path class="st1" d="M336.3,533.6c0-6.9-0.1-8-4.3-8.3l-1.6-0.2c-0.4-0.3-0.3-1.5,0.2-1.6c3.7,0.2,5.9,0.2,8.6,0.2
			c2.6,0,4.8-0.1,8.1-0.2c0.4,0.2,0.5,1.4,0.2,1.6l-1.5,0.2c-3.9,0.3-4,1.4-4,8.3v22.9c0,4.1,0.2,5.8,1.4,7.1c0.7,0.7,2,1.5,7.2,1.5
			c5.6,0,6.9-0.3,8-0.9c1.3-0.8,3-3.2,4.4-6.5c0.4-0.3,1.6-0.1,1.6,0.4c0,0.7-1.8,7.5-2.7,9.2c-3.3-0.2-9.6-0.2-16.4-0.2h-6.1
			c-2.7,0-4.9,0.1-8.6,0.2c-0.4-0.2-0.5-1.3-0.2-1.6l2-0.2c3.8-0.4,3.9-1.3,3.9-8.2L336.3,533.6L336.3,533.6z"/>
		<path class="st1" d="M372.7,533.8c0-6.9-0.2-8.1-4-8.4l-1.6-0.2c-0.4-0.3-0.3-1.5,0.2-1.6c3.3,0.2,5.5,0.2,8.3,0.2
			c2.7,0,4.9-0.1,8.1-0.2c0.4,0.2,0.5,1.4,0.2,1.6l-1.6,0.2c-3.9,0.3-4,1.5-4,8.4v23.4c0,6.9,0.2,7.9,4,8.3l1.6,0.2
			c0.4,0.3,0.3,1.5-0.2,1.6c-3.3-0.2-5.5-0.2-8.1-0.2c-2.7,0-5,0.1-8.3,0.2c-0.4-0.2-0.5-1.3-0.2-1.6l1.6-0.2c3.9-0.4,4-1.4,4-8.3
			V533.8z"/>
		<path class="st1" d="M397.6,528.3c4.8-3.8,10.9-5.6,17.7-5.6c3.5,0,8.6,0.7,11.7,1.5c0.8,0.2,1.3,0.3,1.8,0.3
			c0.1,1.5,0.4,5.7,0.9,9.7c-0.3,0.4-1.3,0.5-1.8,0.2c-0.9-4.5-3.9-9.6-13.4-9.6c-10,0-18.6,6.3-18.6,20c0,13.8,8.7,21.4,19.5,21.4
			c8.5,0,12.2-5.5,13.7-9.4c0.4-0.3,1.5-0.2,1.7,0.3c-0.4,3.4-2.1,7.7-3.2,9c-0.8,0.2-1.5,0.4-2.3,0.7c-1.5,0.5-6.2,1.5-10.4,1.5
			c-5.9,0-11.6-1.2-16.4-4.4c-5.2-3.6-9.3-9.6-9.3-18.1C389.3,538.4,392.6,532.2,397.6,528.3z"/>
		<path class="st1" d="M479.7,549.3c-0.5-1.7-0.9-1.9-3.2-1.9H465c-1.9,0-2.4,0.3-2.9,1.8l-2.7,8.1c-1.1,3.4-1.7,5.5-1.7,6.3
			c0,0.9,0.4,1.4,2.2,1.5l2.6,0.3c0.5,0.3,0.5,1.6-0.2,1.9c-2-0.2-4.4-0.2-8-0.3c-2.6,0-5.3,0.2-7.4,0.3c-0.4-0.3-0.6-1.5-0.2-1.9
			l2.6-0.3c1.9-0.2,3.5-1,4.6-3.8c1.4-3.5,3.5-8.5,6.8-17l7.8-20.7c1.1-2.7,1.5-4.2,1.3-5.4c1.8-0.5,3.2-1.9,4-2.9
			c0.4,0,1,0.2,1.1,0.7c1,3.3,2.2,6.9,3.3,10.3l10.5,30.8c2.2,6.6,3.3,7.7,6.5,8.1l2.1,0.3c0.5,0.3,0.3,1.6,0,1.9
			c-3.2-0.2-5.8-0.3-9.3-0.3c-3.7,0-6.6,0.2-8.8,0.3c-0.6-0.3-0.7-1.5-0.2-1.9l2.2-0.3c1.6-0.2,2.7-0.6,2.7-1.4c0-0.9-0.3-2.2-1-4
			L479.7,549.3z M464.6,542.5c-0.6,1.8-0.5,1.8,1.6,1.8h9.4c2.2,0,2.4-0.3,1.7-2.4l-4.1-12.5c-0.6-1.8-1.3-3.9-1.8-4.8h-0.2
			c-0.3,0.3-1,2.2-1.8,4.5L464.6,542.5z"/>
		<path class="st1" d="M510.1,542.3c0,1.8,0.2,1.8,2.1,1.8h4.5c2.7,0,4.8-0.2,5.6-0.4c0.7-0.3,1.3-0.6,1.6-2.3l0.6-2.7
			c0.3-0.4,1.5-0.4,1.7,0c0,1.5-0.3,4.2-0.3,6.6s0.3,4.9,0.3,6.3c-0.3,0.4-1.3,0.4-1.7,0l-0.7-2.6c-0.3-1.2-0.9-2.1-2.1-2.5
			c-0.9-0.3-2.6-0.3-5.1-0.3h-4.5c-2,0-2.1,0.1-2.1,1.8v9.2c0,6.9,0.2,7.9,4,8.2l2.2,0.2c0.4,0.3,0.3,1.5-0.1,1.6
			c-3.9-0.2-6.1-0.2-8.7-0.2c-2.9,0-5.1,0.1-8.2,0.2c-0.4-0.2-0.5-1.3-0.2-1.6l1.6-0.2c3.8-0.4,3.9-1.3,3.9-8.2v-23.6
			c0-6.9-0.2-7.8-3.9-8.3l-1-0.2c-0.4-0.3-0.3-1.5,0.2-1.6c2.7,0.2,5,0.2,7.6,0.2h12c4.2,0,8,0,8.8-0.2c0,3,0.1,6.2,0.2,8.7
			c-0.2,0.4-1.1,0.6-1.5,0.2c-0.5-3-1.3-5.3-4.6-6.3c-1.5-0.3-3.6-0.4-6.3-0.4h-4c-2,0-2,0.2-2,2.7L510.1,542.3L510.1,542.3
			L510.1,542.3z"/>
		<path class="st1" d="M545.4,542.3c0,1.8,0.2,1.8,2.1,1.8h4.5c2.7,0,4.8-0.2,5.6-0.4c0.7-0.3,1.3-0.6,1.6-2.3l0.6-2.7
			c0.3-0.4,1.5-0.4,1.7,0c0,1.5-0.3,4.2-0.3,6.6s0.3,4.9,0.3,6.3c-0.3,0.4-1.3,0.4-1.7,0l-0.7-2.6c-0.3-1.2-0.9-2.1-2.1-2.5
			c-0.9-0.3-2.6-0.3-5.1-0.3h-4.5c-2,0-2.1,0.1-2.1,1.8v9.2c0,6.9,0.2,7.9,4,8.2l2.2,0.2c0.4,0.3,0.3,1.5-0.2,1.6
			c-3.9-0.2-6.1-0.2-8.7-0.2c-2.9,0-5.1,0.1-8.2,0.2c-0.4-0.2-0.5-1.3-0.2-1.6l1.6-0.2c3.8-0.4,3.9-1.3,3.9-8.2v-23.6
			c0-6.9-0.2-7.8-3.9-8.3l-1-0.2c-0.4-0.3-0.3-1.5,0.2-1.6c2.7,0.2,5,0.2,7.6,0.2h12.1c4.2,0,8.1,0,8.9-0.2c0,3,0.1,6.2,0.2,8.7
			c-0.2,0.4-1.1,0.6-1.5,0.2c-0.5-3-1.3-5.3-4.6-6.3c-1.5-0.3-3.6-0.4-6.3-0.4h-4c-2,0-2,0.2-2,2.7L545.4,542.3L545.4,542.3z"/>
		<path class="st1" d="M593.7,551.9c-0.4-1.5-0.7-1.6-2.7-1.6h-9.9c-1.6,0-2.1,0.2-2.5,1.5l-2.3,6.9c-0.9,2.9-1.5,4.7-1.5,5.5
			s0.3,1.2,1.9,1.3l2.1,0.2c0.4,0.3,0.4,1.4-0.2,1.6c-1.7-0.2-3.8-0.2-6.9-0.2c-2.1,0-4.5,0.2-6.3,0.2c-0.4-0.3-0.5-1.3-0.2-1.6
			l2.1-0.2c1.5-0.2,3-0.9,3.9-3.3c1.2-3,3-7.3,5.8-14.6l6.7-17.7c0.9-2.4,1.3-3.6,1.1-4.6c1.5-0.4,2.7-1.6,3.4-2.5
			c0.4,0,0.9,0.2,1,0.6c0.9,2.9,1.9,5.9,2.9,8.8l9,26.4c1.9,5.7,2.7,6.6,5.6,6.9l1.8,0.2c0.4,0.3,0.3,1.4,0,1.6
			c-2.7-0.2-5-0.2-8-0.2c-3.2,0-5.7,0.2-7.5,0.2c-0.5-0.3-0.6-1.3-0.2-1.6l1.9-0.2c1.4-0.2,2.3-0.5,2.3-1.2s-0.3-1.9-0.9-3.5
			L593.7,551.9z M580.6,546c-0.5,1.5-0.4,1.5,1.4,1.5h8.1c1.9,0,2.1-0.3,1.5-2.1l-3.5-10.7c-0.5-1.5-1.1-3.3-1.5-4.1h-0.2
			c-0.2,0.3-0.9,1.9-1.5,3.9L580.6,546z"/>
		<path class="st1" d="M616.3,533.8c0-6.9-0.2-8.1-4-8.4l-1.6-0.2c-0.4-0.3-0.3-1.5,0.2-1.6c3.3,0.2,5.5,0.2,8.3,0.2
			c2.7,0,4.9-0.1,8.1-0.2c0.4,0.2,0.5,1.4,0.2,1.6l-1.6,0.2c-3.9,0.3-4,1.5-4,8.4v23.4c0,6.9,0.2,7.9,4,8.3l1.6,0.2
			c0.4,0.3,0.3,1.5-0.2,1.6c-3.3-0.2-5.5-0.2-8.1-0.2c-2.7,0-5,0.1-8.3,0.2c-0.4-0.2-0.5-1.3-0.2-1.6l1.6-0.2c3.9-0.4,4-1.4,4-8.3
			V533.8z"/>
		<path class="st1" d="M638.5,533.7c0-6.3-0.2-7.4-2.9-7.7l-2.1-0.3c-0.4-0.3-0.4-1.4,0.1-1.6c3.7-0.3,8.2-0.5,14.6-0.5
			c4.1,0,8,0.3,11,2c3.2,1.6,5.5,4.6,5.5,9.2c0,6.3-4.9,9.7-8.2,11c-0.3,0.4,0,1,0.3,1.5c5.2,8.5,8.7,13.7,13.2,17.5
			c1.1,1,2.7,1.7,4.5,1.9c0.3,0.2,0.4,0.7,0.1,0.9c-0.6,0.2-1.6,0.3-2.9,0.3c-5.6,0-8.9-1.6-13.6-8.3c-1.7-2.4-4.4-6.9-6.4-9.9
			c-0.9-1.5-2.1-2.1-4.6-2.1c-3,0-3.1,0.1-3.1,1.5v8.3c0,6.9,0.1,7.7,3.9,8.2l1.4,0.2c0.4,0.3,0.3,1.5-0.2,1.6
			c-3-0.2-5.2-0.2-7.8-0.2c-2.7,0-5.1,0.1-8.2,0.2c-0.4-0.2-0.5-1.2-0.2-1.6l1.6-0.2c3.8-0.4,3.9-1.3,3.9-8.2L638.5,533.7
			L638.5,533.7L638.5,533.7z M643.9,543c0,1.2,0,1.9,0.2,2.1c0.2,0.2,1.2,0.3,4.5,0.3c2.4,0,4.9-0.3,6.8-1.7
			c1.8-1.4,3.3-3.7,3.3-8.1c0-5.2-3.3-10.1-10.5-10.1c-4.1,0-4.3,0.3-4.3,2.1V543L643.9,543z"/>
		<path class="st1" d="M687.1,568.1c-5.5,0-9-1.7-10.3-2.4c-0.8-1.5-1.6-6.1-1.8-9.2c0.3-0.4,1.3-0.6,1.5-0.2
			c0.9,3.3,3.7,9.8,11.3,9.8c5.5,0,8.2-3.6,8.2-7.5c0-2.9-0.6-6.1-5.4-9.2l-6.3-4.1c-3.3-2.1-7.1-5.9-7.1-11.3
			c0-6.3,4.9-11.3,13.4-11.3c2.1,0,4.4,0.3,6.1,0.9c0.9,0.2,1.8,0.4,2.3,0.4c0.6,1.5,1.2,5.2,1.2,8.1c-0.3,0.4-1.3,0.6-1.6,0.2
			c-0.9-3.2-2.7-7.5-8.9-7.5c-6.4,0-7.8,4.3-7.8,7.3c0,3.8,3.2,6.5,5.6,8.1l5.2,3.3c4.1,2.6,8.2,6.3,8.2,12.6
			C701.1,563.3,695.6,568.1,687.1,568.1z"/>
	</g>
</g>
</svg>
