<?xml version="1.0" encoding="utf-8"?>
<!-- Generator: Adobe Illustrator 22.1.0, SVG Export Plug-In . SVG Version: 6.00 Build 0)  -->
<svg version="1.1" id="Layer_1" xmlns="http://www.w3.org/2000/svg" xmlns:xlink="http://www.w3.org/1999/xlink" x="0px" y="0px"
	 viewBox="0 0 900 900" style="enable-background:new 0 0 900 900;" xml:space="preserve">
<style type="text/css">
	.st0{fill:#B4C7E9;}
	.st1{fill:#FFFFFF;}
</style>
<g>
	<rect class="st0" width="900" height="900"/>
</g>
<g>
	<g>
		<path class="st1" d="M230.4,492.1c-2,0-3.7,1.1-5.1,3.4c-1-2.2-2.6-3.4-4.8-3.4c-1.9,0-3.4,0.9-4.7,2.7v-2.4h-1.9v15.2h1.9v-10.5
			c1.2-2,2.7-3.1,4.3-3.1c1.1,0,2,0.4,2.7,1.3s1,2.1,1,3.7v8.6h1.9v-10.2c0.7-1.2,1.4-2,2-2.6c0.6-0.5,1.4-0.8,2.3-0.8
			c1.2,0,2.1,0.4,2.7,1.3c0.7,0.9,1,2.1,1,3.7v8.6h1.9v-9.3c0-1.8-0.5-3.4-1.5-4.5C233.3,492.7,232,492.1,230.4,492.1z"/>
		<path class="st1" d="M257.3,506.1c-0.2,0-0.2-0.4-0.2-0.6v-9.3c0-1.3-0.5-2.3-1.4-3s-2-1-3.4-1c-1.5,0-3.2,0.5-4.9,1.6h-0.1v2
			l0.2-0.2c1.6-1.2,3.1-1.9,4.5-1.9c2.1,0,3.1,0.9,3.1,2.9v1.7c-2.7,0.2-4.9,0.7-6.3,1.6c-1.5,1-2.3,2.3-2.3,4c0,1.1,0.4,2,1.2,2.8
			s1.8,1.1,2.9,1.1c1.5,0,3-0.6,4.5-1.7c0.1,0.6,0.2,1,0.3,1.3c0.2,0.3,0.5,0.4,0.9,0.4c0.7,0,1.7-0.5,3.1-1.6h0.1v-1.7l-0.2,0.2
			C258,505.9,257.5,506.1,257.3,506.1z M255.2,504.5c-1.4,1.2-2.7,1.8-4,1.8c-0.8,0-1.5-0.2-2-0.7c-0.5-0.4-0.8-1-0.8-1.6
			c0-1.2,0.6-2.1,1.9-2.9c1.2-0.7,2.7-1.1,4.5-1.1c0.1,0,0.2,0,0.4,0L255.2,504.5L255.2,504.5z"/>
		<polygon class="st1" points="282.1,492.4 279.5,492.4 271.3,499.5 271.3,484.7 269.4,484.7 269.4,507.6 271.3,507.6 271.3,499.8 
			280.7,507.6 280.7,507.6 283.3,507.6 273.8,499.6 		"/>
		<path class="st1" d="M297.5,492.1c-2,0-3.7,0.7-5,2.2s-2,3.3-2,5.5c0,2.3,0.7,4.3,2.1,5.8s3.3,2.3,5.4,2.3s4.1-0.7,5.8-2h0.1v-2.2
			l-0.2,0.2c-1.8,1.4-3.6,2.2-5.4,2.2c-1.6,0-2.9-0.6-4.1-1.7s-1.7-2.5-1.7-4.1c0-0.2,0-0.4,0-0.6h11.7v-0.2c0-2.2-0.7-4-2-5.4
			C301,492.8,299.4,492.1,297.5,492.1z M292.8,498c0.3-1.3,0.9-2.2,1.7-2.9c0.9-0.7,1.9-1.1,3.1-1.1c2.5,0,3.9,1.3,4.5,4.1h-9.3
			L292.8,498L292.8,498z"/>
		<path class="st1" d="M325.6,503c-0.7,1.1-1.4,1.9-2.1,2.4s-1.6,0.7-2.6,0.7c-1.2,0-2.1-0.4-2.8-1.1c-0.7-0.8-1.1-1.8-1.1-3.1v-9.3
			h-1.9v9.4c0,1.9,0.5,3.4,1.6,4.5s2.4,1.6,4.1,1.6c1.1,0,2.1-0.2,2.8-0.7c0.7-0.4,1.3-1,2-1.9v2.2h1.9v-15.2h-1.9V503z"/>
		<path class="st1" d="M345.5,492.1c-1.4,0-2.9,0.4-4.3,1v-0.8h-1.9v22.8h1.9v-8.4c1.4,0.7,2.9,1,4.3,1c2.1,0,3.9-0.8,5.4-2.3
			s2.2-3.4,2.2-5.6s-0.7-4.1-2.1-5.6C349.5,492.9,347.7,492.1,345.5,492.1z M349.3,504.4c-1.1,1.1-2.5,1.6-4.2,1.6
			c-1.3,0-2.7-0.4-4-1.1v-10c1.3-0.7,2.5-1,3.8-1c1.7,0,3.2,0.6,4.3,1.7c1.1,1.1,1.7,2.6,1.7,4.4C351,501.9,350.4,503.3,349.3,504.4
			z"/>
		<path class="st1" d="M372.9,495.9c-0.8,0-1.4,0.3-2,0.8c-0.5,0.5-0.8,1.2-0.8,2s0.3,1.4,0.8,2c0.5,0.5,1.2,0.8,2,0.8
			s1.4-0.3,2-0.8c0.5-0.5,0.8-1.2,0.8-2s-0.3-1.4-0.8-2C374.3,496.2,373.6,495.9,372.9,495.9z"/>
		<path class="st1" d="M397.9,499.1c-1.7-0.6-2.7-1.2-3-1.6s-0.5-0.8-0.5-1.3c0-0.7,0.3-1.2,0.9-1.7s1.3-0.7,2.2-0.7
			c1.2,0,2.5,0.5,4,1.5l0.2,0.2v-2.1h-0.1c-1.4-0.9-2.8-1.3-4.1-1.3c-1.4,0-2.5,0.4-3.5,1.2c-1,0.8-1.5,1.8-1.5,3
			c0,0.8,0.3,1.6,0.8,2.3c0.5,0.7,1.6,1.3,3.3,2c1.7,0.7,2.7,1.2,3,1.6c0.4,0.4,0.5,0.8,0.5,1.3c0,0.7-0.3,1.3-0.8,1.7
			c-0.6,0.5-1.3,0.7-2.2,0.7c-1.3,0-2.9-0.5-4.6-1.3l-0.2-0.1v1.9h0.1c1.5,0.9,3,1.4,4.5,1.4c1.4,0,2.6-0.4,3.6-1.2
			c1-0.8,1.5-1.8,1.5-3c0-0.9-0.3-1.7-0.8-2.4C400.8,500.5,399.7,499.8,397.9,499.1z"/>
		<polygon class="st1" points="425.4,492.4 422.9,492.4 414.6,499.5 414.6,484.7 412.7,484.7 412.7,507.6 414.6,507.6 414.6,499.8 
			424,507.6 424,507.6 426.7,507.6 417.1,499.6 		"/>
		<rect x="435.2" y="484.7" class="st1" width="1.9" height="3"/>
		<rect x="435.2" y="492.4" class="st1" width="1.9" height="15.2"/>
		<path class="st1" d="M455.8,492.1c-2,0-3.6,0.9-4.8,2.6v-2.3h-1.9v15.2h1.9v-10.5c1.2-2,2.8-3.1,4.7-3.1c2.6,0,3.9,1.6,3.9,5v8.6
			h1.9v-9.2c0-1.9-0.5-3.5-1.5-4.6C458.9,492.7,457.5,492.1,455.8,492.1z"/>
		<path class="st1" d="M480.2,506.1c-1.7,0-3.1-0.5-4.1-1.6s-1.5-2.5-1.5-4.4c0-1.8,0.5-3.3,1.5-4.4c1.7-1.9,4.3-2.3,7.7-0.8
			l0.2,0.1v-2.1h-0.1c-1.5-0.5-2.8-0.7-4-0.7c-2.1,0-3.9,0.8-5.3,2.3s-2.1,3.5-2.1,5.8s0.7,4.1,2.1,5.5s3.2,2.1,5.4,2.1
			c1.3,0,2.7-0.3,4.2-0.8h0.1v-2l-0.2,0.1C482.8,505.8,481.4,506.1,480.2,506.1z"/>
		<path class="st1" d="M504.9,506.1c-0.2,0-0.2-0.4-0.2-0.6v-9.3c0-1.3-0.5-2.3-1.4-3s-2-1-3.4-1c-1.5,0-3.2,0.5-4.9,1.6h-0.1v2
			l0.2-0.2c1.6-1.2,3.1-1.9,4.5-1.9c2.1,0,3.1,0.9,3.1,2.9v1.7c-2.7,0.2-4.9,0.7-6.4,1.6c-1.5,1-2.3,2.3-2.3,4c0,1.1,0.4,2,1.2,2.8
			c0.8,0.8,1.8,1.1,3,1.1c1.5,0,3-0.6,4.5-1.7c0.1,0.6,0.2,1,0.3,1.3c0.2,0.3,0.5,0.4,0.9,0.4c0.7,0,1.7-0.5,3.1-1.6h0.1v-1.7
			l-0.2,0.2C505.6,505.9,505.1,506.1,504.9,506.1z M502.8,504.5c-1.4,1.2-2.7,1.8-4,1.8c-0.8,0-1.5-0.2-2-0.7
			c-0.5-0.4-0.8-1-0.8-1.6c0-1.2,0.6-2.1,1.9-2.9c1.2-0.7,2.7-1.1,4.5-1.1c0.1,0,0.2,0,0.4,0V504.5z"/>
		<path class="st1" d="M524.2,492.1c-1.7,0-3.4,1.3-5.1,4v-3.7h-1.9v15.2h1.9v-9.5c1.6-2.8,3.2-4.2,4.6-4.2c0.7,0,1.7,0.6,2.9,1.7
			l0.1,0.1l1.1-1.7l-0.1-0.1C526.3,492.8,525.2,492.1,524.2,492.1z"/>
		<path class="st1" d="M542.3,492.1c-2,0-3.7,0.7-5,2.2s-2,3.3-2,5.5c0,2.3,0.7,4.3,2.1,5.8c1.4,1.5,3.2,2.3,5.4,2.3
			c2.1,0,4.1-0.7,5.8-2h0.1v-2.2l-0.2,0.2c-1.8,1.4-3.6,2.2-5.4,2.2c-1.6,0-2.9-0.6-4.1-1.7c-1.2-1.1-1.7-2.5-1.7-4.1
			c0-0.2,0-0.4,0-0.6H549v-0.2c0-2.2-0.7-4-2-5.4C545.8,492.8,544.2,492.1,542.3,492.1z M537.6,498c0.3-1.3,0.9-2.2,1.7-2.9
			c0.9-0.7,1.9-1.1,3.1-1.1c2.5,0,3.9,1.3,4.5,4.1h-9.3V498z"/>
		<path class="st1" d="M568.7,495.9c-0.8,0-1.4,0.3-2,0.8c-0.5,0.5-0.8,1.2-0.8,2s0.3,1.4,0.8,2c0.5,0.5,1.2,0.8,2,0.8
			s1.4-0.3,2-0.8c0.5-0.5,0.8-1.2,0.8-2s-0.3-1.4-0.8-2C570.1,496.2,569.5,495.9,568.7,495.9z"/>
		<path class="st1" d="M593.7,499.1c-1.7-0.6-2.7-1.2-3-1.6s-0.5-0.8-0.5-1.3c0-0.7,0.3-1.2,0.9-1.7c0.6-0.5,1.3-0.7,2.2-0.7
			c1.2,0,2.5,0.5,4,1.5l0.2,0.2v-2.1h-0.1c-1.5-0.9-2.8-1.3-4.1-1.3c-1.4,0-2.5,0.4-3.5,1.2c-1,0.8-1.5,1.8-1.5,3
			c0,0.8,0.3,1.6,0.8,2.3c0.5,0.7,1.6,1.3,3.3,2s2.7,1.2,3,1.6c0.4,0.4,0.5,0.8,0.5,1.3c0,0.7-0.3,1.3-0.8,1.7
			c-0.6,0.5-1.3,0.7-2.2,0.7c-1.3,0-2.9-0.5-4.6-1.3l-0.2-0.1v1.9h0.1c1.5,0.9,3,1.4,4.5,1.4c1.4,0,2.6-0.4,3.6-1.2
			c1-0.8,1.5-1.8,1.5-3c0-0.9-0.3-1.7-0.8-2.4C596.6,500.5,595.5,499.8,593.7,499.1z"/>
		<path class="st1" d="M614.9,492.1c-1.4,0-2.9,0.4-4.3,1v-0.8h-1.9v22.8h1.9v-8.4c1.4,0.7,2.9,1,4.3,1c2.1,0,3.9-0.8,5.4-2.3
			s2.2-3.4,2.2-5.6s-0.7-4.1-2.1-5.6C618.8,492.9,617,492.1,614.9,492.1z M618.7,504.4c-1.1,1.1-2.5,1.6-4.2,1.6
			c-1.3,0-2.7-0.4-4-1.1v-10c1.3-0.7,2.5-1,3.8-1c1.7,0,3.2,0.6,4.3,1.7s1.7,2.6,1.7,4.4C620.3,501.9,619.8,503.3,618.7,504.4z"/>
		<path class="st1" d="M645.4,504.8c-1.4,1.1-1.9,1.3-2,1.3c-0.2,0-0.2-0.4-0.2-0.6v-9.3c0-1.3-0.5-2.3-1.4-3s-2-1-3.4-1
			c-1.5,0-3.2,0.5-4.9,1.6h-0.1v2l0.2-0.2c1.6-1.2,3.1-1.9,4.5-1.9c2.1,0,3.1,0.9,3.1,2.9v1.7c-2.7,0.2-4.9,0.7-6.3,1.6
			c-1.5,1-2.3,2.3-2.3,4c0,1.1,0.4,2,1.2,2.8s1.8,1.1,2.9,1.1c1.5,0,3-0.6,4.5-1.7c0.1,0.6,0.2,1,0.3,1.3c0.2,0.3,0.5,0.4,0.9,0.4
			c0.7,0,1.7-0.5,3.1-1.6h0.1v-1.7L645.4,504.8z M641.3,504.5c-1.4,1.2-2.7,1.8-4,1.8c-0.8,0-1.5-0.2-2-0.7c-0.5-0.4-0.8-1-0.8-1.6
			c0-1.2,0.6-2.1,1.9-2.9c1.2-0.7,2.7-1.1,4.5-1.1c0.1,0,0.2,0,0.4,0L641.3,504.5L641.3,504.5z"/>
	</g>
	<g>
		<g>
			<path class="st1" d="M730.1,419.9c0-1.2,0.3-2.4,0.9-3.4c0.6-1.1,1.4-1.9,2.5-2.5s2.2-0.9,3.4-0.9c1.9,0,3.5,0.7,4.8,2
				s2,2.9,2,4.8s-0.7,3.5-2,4.8s-2.9,2-4.8,2c-1.9,0-3.5-0.7-4.8-2C730.7,423.4,730.1,421.8,730.1,419.9z M742.3,419.9
				c0-1.5-0.5-2.8-1.6-3.9s-2.4-1.6-3.9-1.6s-2.8,0.5-3.9,1.6c-1.1,1.1-1.6,2.4-1.6,3.9s0.5,2.8,1.6,3.9s2.4,1.6,3.9,1.6
				s2.8-0.5,3.9-1.6C741.8,422.7,742.3,421.4,742.3,419.9z M740.5,423.6h-1.8c-0.7-1.5-1.2-2.3-1.5-2.6c-0.3-0.3-0.6-0.4-1-0.4h-0.5
				v3h-1.5v-7.2h3.6c0.7,0,1.2,0.2,1.6,0.6c0.4,0.4,0.6,0.9,0.6,1.5c0,0.5-0.2,1-0.5,1.4s-0.8,0.6-1.4,0.7l0,0
				c0.3,0.1,0.5,0.2,0.6,0.4c0.2,0.2,0.5,0.6,0.9,1.3L740.5,423.6z M735.6,419.4h1.4c1,0,1.4-0.3,1.4-1s-0.5-1-1.5-1h-1.3
				L735.6,419.4L735.6,419.4z"/>
		</g>
		<path class="st1" d="M155.7,385.3c0,2,0,78.8,0,80.1c2.1,0.9,4.7,1.7,7.9,2.3c3.8,0.7,7.4,1.1,10.9,1.1c8.3,0,15-2.5,19.9-7.3
			c4.9-4.9,7.4-11.5,7.4-19.8v-2.9c-0.2-7.1-2.3-13.1-6.2-17.7c-4.1-4.8-9.3-7.3-15.7-7.3c-4.9,0-9.6,1.6-14,4.8l-2.7,2
			c0,0,0-33.4,0-35.3C161.6,385.3,157.1,385.3,155.7,385.3z M164.3,460.3l-1.2-0.4v-33.2l0.6-0.5c4.5-3.8,9-5.8,13.5-5.8
			c5.1,0,9.3,1.9,12.4,5.7c2.7,3.2,4.3,7.4,4.6,12.2l0.1,3.6c0,5.8-1.7,10.6-5,14.3c-3.4,3.8-7.8,5.7-13.1,5.7
			C172.1,462.1,168.1,461.5,164.3,460.3z"/>
		<path class="st1" d="M213.6,385.4c0,2,0,80.6,0,82.5c1.4,0,6,0,7.5,0c0-2,0-80.6,0-82.5C219.6,385.4,215,385.4,213.6,385.4z"/>
		<path class="st1" d="M232.9,413c0,1.9,0,36.7,0,36.7c0,9.3,4.7,19.3,18.1,19.3c12,0,17.5-9.2,17.5-9.2s0,6.7,0,8.3
			c1.4,0,6,0,7.5,0c0-1.9,0-53.1,0-55c-1.4,0-6,0-7.5,0c0,1.9,0,35.4,0,35.4c0,4-5.6,13.9-16.1,13.9c-7.9,0-12.1-5.2-12.1-14.9
			c0,0,0-32.5,0-34.4C238.9,413,234.3,413,232.9,413z"/>
		<path class="st1" d="M580.5,413.1c0,1.9,0,36.7,0,36.7c0,9.3,4.7,19.3,18.1,19.3c12,0,17.5-9.2,17.5-9.2s0,6.7,0,8.3
			c1.4,0,6,0,7.5,0c0-1.9,0-53.1,0-55c-1.4,0-6.1,0-7.5,0c0,1.9,0,35.4,0,35.4c0,4-5.6,13.9-16.1,13.9c-7.9,0-12.1-5.2-12.1-14.9
			c0,0,0-32.5,0-34.4C586.5,413.1,581.9,413.1,580.5,413.1z"/>
		<path class="st1" d="M286.3,439.4c0,19.1,9.5,29.6,26.6,29.6c10.3,0,17.7-6.5,19.9-8.7c-1.1-0.9-3.7-3.2-4.7-4.1
			c-1.8,1.9-7.2,6.4-15.2,6.4c-14.2,0-19.4-11.3-19.4-18.9V443c0,0,38.9,0,40.9,0c0-1.2,0-3.9,0-3.9c0-15.5-9.6-26.8-22.8-26.8
			C296,412.3,286.3,422.7,286.3,439.4z M294.2,436.5c0-5,3-18.1,16.5-18.1c12.5,0,16.5,12.2,16.5,18.1v0.4h-33V436.5z"/>
		<path class="st1" d="M433.1,439.4c0,19.1,9.5,29.6,26.6,29.6c10.3,0,17.7-6.5,19.9-8.7c-1.1-0.9-3.7-3.2-4.7-4.1
			c-1.8,1.9-7.2,6.4-15.2,6.4c-14.2,0-19.4-11.3-19.4-18.9V443c0,0,38.9,0,40.9,0c0-1.2,0-3.9,0-3.9c0-15.5-9.6-26.8-22.8-26.8
			C442.8,412.3,433.1,422.7,433.1,439.4z M441,436.5c0-5,3-18.1,16.5-18.1c12.5,0,16.5,12.2,16.5,18.1v0.4h-33V436.5z"/>
		<path class="st1" d="M499.2,427.2c0,0,0-12.2,0-13.9c-1.4,0-6,0-7.5,0c0,1.9,0,53,0,55c1.4,0,6,0,7.5,0c0-1.9,0-28.7,0-28.7
			c0-10.6,10-18.6,23.5-19.2c0-1.4,0-6.7,0-8.2C507.1,412.8,499.2,427.2,499.2,427.2z"/>
		<path class="st1" d="M643,427.2c0,0,0-12.2,0-13.9c-1.4,0-6,0-7.5,0c0,1.9,0,53,0,55c1.4,0,6,0,7.5,0c0-1.9,0-28.7,0-28.7
			c0-10.6,10-18.6,23.5-19.2c0-1.4,0-6.7,0-8.2C650.9,412.8,643,427.2,643,427.2z"/>
		<path class="st1" d="M718.1,413.2c-0.5,1.1-18.5,36.4-18.5,36.4s-16-35.2-16.6-36.4c-1,0-5.9,0-8,0c1.3,2.7,20.6,43.9,20.6,43.9
			s-16,31.4-17.4,34.1c2.2,0,7,0,7.9,0c0.5-1.1,38.4-75.2,39.9-78C723.9,413.2,719.1,413.2,718.1,413.2z"/>
		<path class="st1" d="M535.2,420L535.2,420c-4.5,4.7-6.9,11-7.1,18.6v3.5c0,8.2,2.5,14.8,7.3,19.7c4.9,4.8,11.5,7.3,19.8,7.3
			c4.7,0,9.6-0.9,14.6-2.6c0-1,0-5.3,0-7.2c-4.8,1.9-9.2,2.9-13,2.9c-6.3,0-11.5-1.9-15.3-5.5c-3.8-3.7-5.7-8.7-5.7-14.9v-3.1
			c0.2-5.3,2-9.8,5.3-13.4c3.5-3.9,8.1-5.8,13.6-5.8c4.3,0,9,1.4,13.9,4.2c0-2.2,0-6.8,0-7.8c-2.8-1.2-5.3-2.1-7.2-2.6
			c-2.2-0.5-4.7-0.8-7.4-0.8C546.3,412.4,539.9,414.9,535.2,420z"/>
		<path class="st1" d="M387.4,421.4l-0.9,1.2l-0.8-1.3c-3.3-5.9-8.7-8.9-16.1-8.9c-10.1,0-15.8,8.3-15.9,8.3l-1.9,2.7
			c0,0,0-8.8,0-10.3c-1.4,0-5.8,0-7.2,0c0,1.9,0,53.2,0,55.1c1.4,0,5.6,0,7,0c0-1.9,0-30.2,0-30.2c0-9.4,6.6-19.2,17.6-19.2
			c3.4,0,6.1,1,8.1,3.1c3.5,3.5,3.9,9.2,3.9,12.5c0,0.6,0,1.1,0,1.5v0.6c0,0,0,29.8,0,31.7c1.4,0,6,0,7.4,0c0-1.9,0-32.1,0-32.1
			v-2.7v-5.3l0.2-0.2c2.8-4.4,8.1-9.2,15-9.2c3.2,0,5.9,1.1,7.9,3.2c3.7,3.9,4.1,10.4,4.1,13.2c0,0.8,0,1.3,0,1.4c0,0,0,29.8,0,31.7
			c1.4,0,6.2,0,7.7,0c0-1.9,0-32.1,0-32.1c0-16.7-5.8-23.8-19.3-23.8C394.5,412.4,387.7,421,387.4,421.4z"/>
	</g>
</g>
</svg>
