<?xml version="1.0" encoding="utf-8"?>
<!-- Generator: Adobe Illustrator 27.0.0, SVG Export Plug-In . SVG Version: 6.00 Build 0)  -->
<svg version="1.1" id="Layer_1" xmlns="http://www.w3.org/2000/svg" xmlns:xlink="http://www.w3.org/1999/xlink" x="0px" y="0px"
	 viewBox="0 0 360 360" style="enable-background:new 0 0 360 360;" xml:space="preserve">
<style type="text/css">
	.st0{fill:#004977;}
	.st1{fill:#D03027;}
	.st2{fill:#FFFFFF;}
</style>
<rect class="st0" width="360" height="360"/>
<g>
	<path class="st1" d="M217.8,197C217.8,197,217.8,197,217.8,197c-9,6.4-19.7,13.1-31.2,20.1l-0.5,0.3c-0.2,0.1-0.2,0.3-0.1,0.5
		c0.1,0.1,0.3,0.2,0.5,0.1l0.4-0.2c9.7-5.1,20.9-11.1,32.2-17.3c0.1,0,0.1-0.1,0.2-0.1C218.7,199.3,218.2,198.1,217.8,197L217.8,197
		z M277,149.1c-14.2-15.7-105.6-1.6-144.5,6.9l-0.9,0.2c-0.2,0-0.3,0.2-0.3,0.4c0,0,0,0,0,0c0,0.2,0.2,0.3,0.4,0.3l0.9-0.2
		c32.2-5.7,99.2-13.7,113.6,0.6c4.4,4.4,3.4,10-1.8,16.6c2.7,1.8,4.7,4.5,5.6,8C269.9,168.7,283.3,156,277,149.1L277,149.1z"/>
	<g>
		<path class="st2" d="M223.6,192.9c0.2,5.5,3.7,10,8.2,10c8.8,0,12.6-10.8,12.3-18.1c-0.2-5.5-3.8-10-8.3-10
			C228.2,174.8,223.3,185.6,223.6,192.9z M218.9,192.6c-0.3-9.4,7-19,17.8-19c7.2,0,11.8,4.8,12.1,12.1c0.3,9.9-6.5,19-17.8,19
			C223.9,204.6,219.2,199.9,218.9,192.6z M117.5,190.1c-0.4,0.1-0.9,0.3-1.5,0.4c-0.6,0.1-1.7,0.3-3.4,0.6c-1.1,0.2-1.9,0.4-2.3,0.7
			c-0.4,0.3-0.7,0.7-0.7,1.1c-0.1,0.5,0.1,0.9,0.5,1.2c0.4,0.3,1.1,0.5,2.2,0.5c0.8,0,1.5-0.1,2.2-0.4c0.7-0.2,1.3-0.6,1.8-1
			c0.3-0.3,0.6-0.7,0.8-1.1C117.1,191.8,117.3,191.1,117.5,190.1L117.5,190.1z M126.8,184.3c0,0.9-0.2,1.6-0.4,2.9l-1.6,8.8
			c-0.1,0.8,0.2,1.4,0.9,1.8l0,0.3l-9,0l-0.1-2.2c-1.4,0.8-2.8,1.4-4.3,1.9c-1.4,0.4-2.6,0.5-4.3,0.5c-2.9,0-4.6-0.3-5.7-1.3
			c-1.2-1-1.7-1.7-1.7-3.2c0-0.8,0.5-1.9,1.1-2.6c0.6-0.8,1.5-1.2,2.4-1.7c0.9-0.4,2-0.8,3.6-1c1.6-0.3,3.8-0.5,6.8-0.8
			c1.6-0.1,2.5-0.5,3-0.7c0.6-0.2,0.9-0.5,1-1c0.2-0.9-0.1-1.4-1.3-1.7c-3.2-0.6-9.3,0.4-12.5,1.2l1.7-4.6c4.1-0.6,8-1,12.1-1
			C124.8,180.1,126.8,181.9,126.8,184.3L126.8,184.3z M152.9,198.2l3.1-17.7h8.6l-3.1,17.7L152.9,198.2z M156.5,176.5
			c0.3-1.5,2.6-2.6,5.1-2.6c2.6,0,4.4,1.2,4.2,2.6c-0.3,1.5-2.6,2.6-5.1,2.6C158.1,179.1,156.3,177.9,156.5,176.5z M195.4,190.1
			c-0.4,0.1-0.9,0.3-1.5,0.4s-1.7,0.3-3.4,0.6c-1.1,0.2-1.9,0.4-2.3,0.7c-0.4,0.3-0.7,0.7-0.8,1.1c-0.1,0.5,0.1,0.9,0.5,1.2
			c0.4,0.3,1.2,0.4,2.2,0.4c0.8,0,1.5-0.1,2.2-0.3c0.7-0.3,1.3-0.6,1.8-1c0.3-0.3,0.6-0.7,0.8-1.1
			C195,191.8,195.2,191.2,195.4,190.1L195.4,190.1z M204.7,184.3c0,0.9-0.2,1.6-0.4,2.9l-1.6,8.9c-0.1,0.8,0.2,1.4,0.9,1.8l0,0.3
			l-9,0l-0.1-2.3c-1.4,0.8-2.8,1.4-4.3,1.8c-1.4,0.4-2.6,0.5-4.3,0.5c-2.9,0-4.6-0.3-5.7-1.3c-1.2-1-1.7-1.7-1.7-3.2
			c0-0.8,0.5-1.9,1.1-2.6c0.6-0.8,1.5-1.2,2.4-1.7c0.9-0.4,2-0.8,3.6-1c1.6-0.2,3.8-0.5,6.8-0.8c1.6-0.1,2.5-0.5,2.9-0.7
			c0.6-0.2,0.9-0.5,1-1c0.2-0.9-0.1-1.4-1.3-1.7c-3.3-0.6-9.3,0.4-12.5,1.2l1.7-4.6c4.2-0.6,8-1,12.1-1
			C202.6,180.1,204.7,181.9,204.7,184.3L204.7,184.3z M99.3,191.9c-2.8,0.6-4.4,0.8-7.2,0.8c-4.1,0-7.4-2.1-7.2-5.8
			c0.1-2.5,3.1-7.8,10.6-7.8c2.4,0,4.2,0.4,6.7,1.8l1.1-6.1c-3.4-1.3-5.6-1.5-8.5-1.4c-9.9,0.1-19.3,4.6-20.5,13.7
			c-1.2,9.3,10.1,11.6,15.2,11.6c2.9,0,5.9-0.1,8.7-0.4L99.3,191.9z M169.4,180.5l0.6-3.6l9-2l-1,5.6h4.4l-0.8,3.6l-4.3,0l-2.6,14.2
			c0,0-8.7-0.1-8.7,0l2.6-14.2h-3.3l0.7-3.6L169.4,180.5L169.4,180.5z M217.6,173.8l-4.2,24.4l-8.8,0l4.4-24.6L217.6,173.8z
			 M141.5,184.7c-1.1,0-2.2,0.4-3.1,1c-0.9,0.7-1.5,1.7-1.7,3c-0.3,1.5-0.1,2.6,0.5,3.3c0.6,0.7,1.5,1,2.7,1c0.8,0,1.6-0.1,2.2-0.4
			c0.7-0.4,1.3-0.8,1.7-1.5c0.5-0.7,0.8-1.4,1-2.3c0.3-1.4,0-2.4-0.6-3.1C143.5,185.1,142.6,184.7,141.5,184.7L141.5,184.7z
			 M125.8,204.3l4.2-23.7h7.6l-0.6,3c0.7-0.9,1.7-1.6,3.2-2.2c1.5-0.6,3.1-1,4.9-1c2,0,3.2,0.1,4.7,0.9c1.5,0.8,2.5,1.9,3.1,3.4
			c0.6,1.4,0.7,3.1,0.4,4.8c-0.5,2.9-1.9,5.2-4.3,6.9c-2.3,1.7-4.4,2.1-7.4,2.1c-1.1,0-1.9-0.1-2.7-0.3c-0.7-0.2-1.3-0.4-1.7-0.7
			c-0.4-0.3-0.9-0.7-1.4-1.3l-1.4,8.1L125.8,204.3z M282.5,186.9c0-1.4-0.8-2.4-2.2-2.4c-3.5,0-7.3,6.9-8,9.7
			C278.2,194.2,282.7,190.8,282.5,186.9L282.5,186.9z M283.3,197.8l0.7,0.5c-1.7,3.5-5.2,6.3-9.4,6.3c-3.4,0-6.2-2.3-6.3-6.5
			c-0.3-7.6,6.8-14.6,12.6-14.6c2.5,0,4.8,1.1,4.9,3.8c0.2,6-8.2,7.9-13.8,8c-0.2,0.6-0.3,1.3-0.2,2.2c0.1,2.5,1.6,4.6,4.7,4.6
			C279.2,202.1,281.9,199.9,283.3,197.8L283.3,197.8z"/>
		<path class="st2" d="M248.7,186.7c0.6-0.1,1.6-0.2,2-0.2c0.6,0,1.2,0.1,1.3,0.8c0,0.4-0.7,3.1-0.8,3.7l-1.3,5.9
			c-0.5,2.4-1.1,5-1.7,7h3.5l1.9-9.4c5.9-6.2,8.2-8.2,9.6-8.2c0.6,0,1.1,0.3,1.1,1.1c0,1.1-0.6,3.6-0.9,4.3l-2,6.9
			c-0.5,1.5-0.8,2.9-0.8,3.9c0.1,1.5,1,2.2,2.3,2.2c2.5,0,4.4-2.6,6-5.2l-0.5-0.8c-0.6,1-2.1,3.3-3.3,3.3c-0.4,0-0.7-0.2-0.7-0.9
			c0-0.8,0.3-2,0.5-2.8l2.2-8c0.6-2.2,0.9-3.6,0.9-4.4c-0.1-1.5-0.9-2.2-2.3-2.2c-2.3,0-5.3,1.7-11.7,9h-0.1l0.8-3.6
			c0.4-2,0.9-4,1.3-5.4c-2.2,0.8-5.4,1.7-7.3,2.1L248.7,186.7z"/>
	</g>
</g>
</svg>
