<?xml version="1.0" encoding="utf-8"?>
<!-- Generator: Adobe Illustrator 27.0.0, SVG Export Plug-In . SVG Version: 6.00 Build 0)  -->
<svg version="1.1" id="Layer_1" xmlns="http://www.w3.org/2000/svg" xmlns:xlink="http://www.w3.org/1999/xlink" x="0px" y="0px"
	 viewBox="0 0 900 900" style="enable-background:new 0 0 900 900;" xml:space="preserve">
<style type="text/css">
	.st0{fill:#F4F2E9;}
	.st1{enable-background:new    ;}
	.st2{fill:#1C4483;}
	.st3{fill:#BE1E2D;}
	.st4{fill:#FFFFFF;}
</style>
<rect class="st0" width="900" height="900"/>
<g>
	<g class="st1">
		<path class="st2" d="M251,550.9c-16.5,0-28.8-12.8-28.8-28.9v-0.2c0-16,12-29.1,29.3-29.1c10.6,0,16.9,3.5,22.2,8.7l-7.9,9.1
			c-4.3-3.9-8.8-6.3-14.4-6.3c-9.5,0-16.3,7.9-16.3,17.5v0.2c0,9.6,6.7,17.7,16.3,17.7c6.4,0,10.4-2.6,14.8-6.6l7.9,8
			C268.3,547.1,261.8,550.9,251,550.9z"/>
		<path class="st2" d="M307.4,550.9c-15.1,0-24.3-8.4-24.3-25v-32.1h12.4v31.8c0,9.2,4.6,13.9,12.1,13.9s12.1-4.6,12.1-13.5v-32.2
			H332v31.7C332,542.5,322.5,550.9,307.4,550.9z"/>
		<path class="st2" d="M388.6,550v-36.7l-15.8,24h-0.3l-15.7-23.8V550h-12.1v-56.2H358l14.8,23.8l14.8-23.8h13.3V550H388.6z"/>
		<path class="st2" d="M458.3,550v-36.7l-15.8,24h-0.3l-15.7-23.8V550h-12.1v-56.2h13.3l14.8,23.8l14.8-23.8h13.3V550H458.3z"/>
		<path class="st2" d="M484.6,550v-56.2H497V550H484.6z"/>
		<path class="st2" d="M550.5,550l-27.2-35.7V550H511v-56.2h11.4l26.3,34.6v-34.6H561V550H550.5z"/>
		<path class="st2" d="M601.5,550.9c-17.5,0-29.6-12.3-29.6-28.9v-0.2c0-16,12.4-29.1,29.5-29.1c10.1,0,16.2,2.7,22.1,7.7l-7.8,9.4
			c-4.3-3.6-8.2-5.7-14.7-5.7c-9,0-16.1,8-16.1,17.5v0.2c0,10.3,7.1,17.8,17,17.8c4.5,0,8.5-1.1,11.6-3.4v-8h-12.4v-10.7h24.4V542
			C619.8,546.9,611.8,550.9,601.5,550.9z"/>
		<path class="st2" d="M657.4,550.8c-8.5,0-17.1-3-23.9-9l7.3-8.8c5.1,4.2,10.4,6.8,16.8,6.8c5.1,0,8.1-2,8.1-5.3v-0.2
			c0-3.1-1.9-4.7-11.3-7.1c-11.3-2.9-18.6-6-18.6-17.2v-0.2c0-10.2,8.2-16.9,19.7-16.9c8.2,0,15.2,2.6,20.9,7.1l-6.4,9.3
			c-5-3.5-9.9-5.5-14.6-5.5s-7.2,2.2-7.2,4.9v0.2c0,3.7,2.4,4.9,12.1,7.4c11.4,3,17.8,7.1,17.8,16.9v0.2
			C678.1,544.5,669.6,550.8,657.4,550.8z"/>
	</g>
	<g class="st1">
		<path class="st2" d="M399.4,594l-4.8-3.9c3.1-4.2,6.1-6.5,11.7-6.5c6.7,0,10.8,3.8,10.8,9.7c0,5.2-2.7,7.9-8.2,12.2l-5.1,3.9h13.6
			v5.9h-23.2v-5.5l10.4-8.5c3.9-3.2,5.4-4.9,5.4-7.5c0-2.6-1.7-4.1-4.2-4.1C403.4,589.8,401.7,591.1,399.4,594z"/>
		<path class="st2" d="M436.1,615.9c-8.4,0-13.9-7-13.9-16.1c0-9.1,5.6-16.2,13.9-16.2s13.9,7,13.9,16.1
			C450,608.8,444.4,615.9,436.1,615.9z M436.1,589.7c-4.2,0-6.8,4.2-6.8,9.9s2.7,10,6.9,10s6.8-4.2,6.8-9.9S440.2,589.7,436.1,589.7
			z"/>
		<path class="st2" d="M459.4,594l-4.8-3.9c3.1-4.2,6.1-6.5,11.7-6.5c6.7,0,10.8,3.8,10.8,9.7c0,5.2-2.7,7.9-8.2,12.2l-5.1,3.9h13.6
			v5.9h-23.2v-5.5l10.4-8.5c3.9-3.2,5.4-4.9,5.4-7.5c0-2.6-1.7-4.1-4.2-4.1C463.4,589.8,461.7,591.1,459.4,594z"/>
		<path class="st2" d="M483.4,590v-5.9h21.1v5.2l-7.9,7.6c4.3,0.7,8.4,3,8.4,8.8c0,5.9-4.3,10.3-11.3,10.3c-5.6,0-9.5-2.2-12.2-5.4
			l4.7-4.5c2.1,2.4,4.4,3.8,7.6,3.8c2.6,0,4.4-1.5,4.4-3.8c0-2.6-2.2-4-6.1-4h-2.9l-1.1-4.4l7.5-7.5H483.4z"/>
	</g>
	<g>
		<g>
			<path class="st2" d="M414.8,311.6c4.5-3.8,9.6-6.9,15.1-9.3c8.1-3.6,16.8-5.4,26.2-5.4c11.6,0,21.8,2.2,30.1,6.6
				c8.4,4.4,16.4,10.1,23.6,17l0.7,0.7l14.6-15.7l-0.7-0.7c-4.3-4.2-8.9-8-13.5-11.3c-4.6-3.5-9.8-6.3-15.2-8.8
				c-5.5-2.4-11.5-4.3-17.9-5.7s-13.6-2-21.6-2c-12.8,0-24.7,2.4-35.5,7.2c-10.8,4.7-20.2,11.3-28,19.5c-2.4,2.5-4.6,5.2-6.7,8
				C395.3,310.6,404.9,310.4,414.8,311.6z"/>
			<path class="st2" d="M511.5,413.3L511.5,413.3c-8.2,7.8-16.6,14-25,18.3s-18.6,6.5-30.2,6.5c-9.3,0-18.2-1.8-26.2-5.5
				c-8.1-3.7-15.1-8.6-21-15s-10.6-13.8-14-22.5c-0.2-0.7-0.5-1.4-0.7-2.1c-7.8,0.5-15.2,1.8-22,3.7c0.7,2.2,1.4,4.3,2.3,6.5
				c4.4,11,10.6,20.6,18.3,28.6c7.8,8.1,17.2,14.5,27.8,19.1c10.6,4.6,22.4,7,35.1,7c8,0,15.2-0.8,21.8-2.3
				c6.5-1.5,12.6-3.6,18.2-6.2s11-5.9,15.9-9.7l0,0c4.8-3.7,9.7-8,14.1-12.6l0.7-0.7l-13.5-13.3
				C512.4,413.3,511.9,413.3,511.5,413.3z"/>
		</g>
		<path class="st3" d="M451.6,329.6c-3.8-1-7.6-2.1-11.6-3.1V340c2.8,0.8,5.5,1.5,8.3,2.2c37.7,10.1,61.6,16.6,108.4,6.6v-13.4
			C511.1,345.6,489.3,339.7,451.6,329.6z"/>
		<path class="st3" d="M451.6,354.7c-3.8-1-7.6-2.1-11.6-3.1v13.5c2.8,0.8,5.5,1.5,8.3,2.2c37.7,10.1,61.6,16.6,108.4,6.6v-13.4
			C511.1,370.8,489.3,364.9,451.6,354.7z"/>
		<path class="st3" d="M451.6,379.9c-3.8-1-7.6-2.1-11.6-3.1v13.5c2.8,0.8,5.5,1.5,8.3,2.2c37.7,10.1,61.6,16.6,108.4,6.6v-13.4
			C511.1,395.9,489.3,390,451.6,379.9z"/>
		<path class="st2" d="M343.3,332.9v14.4V358v14.5v10.6v14.5c18.2-9,49.1-19.7,82.6-11.2c0.2,0,0.5,0.1,0.7,0.1v-13.4v-11.8V348
			v-11.8v-13.4C393.4,315.4,363.3,323.9,343.3,332.9z"/>
		<polygon class="st4" points="383,332.7 387.7,347.1 402.8,347.1 390.6,356 395.3,370.4 383,361.5 370.8,370.4 375.4,356 
			363.2,347.1 378.3,347.1 		"/>
	</g>
</g>
</svg>
