<?xml version="1.0" encoding="utf-8"?>
<!-- Generator: Adobe Illustrator 22.1.0, SVG Export Plug-In . SVG Version: 6.00 Build 0)  -->
<svg version="1.1" id="Layer_1" xmlns="http://www.w3.org/2000/svg" xmlns:xlink="http://www.w3.org/1999/xlink" x="0px" y="0px"
	 viewBox="0 0 900 900" style="enable-background:new 0 0 900 900;" xml:space="preserve">
<style type="text/css">
	.st0{fill:#2D3343;}
	.st1{fill:#30FD98;}
</style>
<g>
	<rect class="st0" width="900" height="900"/>
</g>
<g>
	<g>
		<polygon class="st1" points="454.9,569.5 446.4,517.5 432.4,517.5 449.1,599.4 460.7,599.4 477.5,517.5 463.5,517.5 		"/>
		<polygon class="st1" points="490.8,599.4 526.8,599.4 526.8,586.2 504.1,586.2 504.1,564.4 523.9,564.4 523.9,551.8 504.1,551.8 
			504.1,530.1 526.8,530.1 526.8,517.5 490.8,517.5 		"/>
		<polygon class="st1" points="629.4,527.8 629.5,517.5 594.7,517.5 594.7,530.1 614.8,530.1 593.7,588.1 593.6,599.4 629.5,599.4 
			629.5,586.8 607.8,586.8 		"/>
		<path class="st1" d="M418.4,554.3c1.5-3.4,2.3-7.6,2.3-12.3c0-16.2-7.1-24.4-21.1-24.4h-19.3v81.9h13.3v-34.2h5.3l10.7,34.2h14
			L411,562.4C414.5,560.3,417,557.6,418.4,554.3z M407.1,546.9c-0.2,1.4-0.6,2.6-1.2,3.6c-0.6,0.9-1.3,1.6-2.4,2.1s-2.6,0.8-4.5,0.8
			h-5.6v-23.2h5.1c2,0,3.6,0.2,4.7,0.7s2,1.1,2.6,2.1s1.1,2.2,1.3,3.6c0.2,1.5,0.3,3.2,0.3,5.2C407.4,543.7,407.3,545.4,407.1,546.9
			z"/>
		<path class="st1" d="M579.2,554.3c1.5-3.4,2.3-7.6,2.3-12.3c0-16.2-7.1-24.4-21.1-24.4h-19.3v81.9h13.3v-34.2h5.3l10.7,34.2h14
			l-12.5-37.1C575.2,560.3,577.7,557.6,579.2,554.3z M567.8,546.9c-0.2,1.4-0.6,2.6-1.2,3.6c-0.6,0.9-1.3,1.6-2.4,2.1
			c-1.1,0.5-2.6,0.8-4.5,0.8h-5.6v-23.2h5.1c2,0,3.6,0.2,4.7,0.7c1.1,0.5,2,1.1,2.6,2.1s1.1,2.2,1.3,3.6c0.2,1.5,0.3,3.2,0.3,5.2
			C568.2,543.7,568.1,545.4,567.8,546.9z"/>
		<path class="st1" d="M349.8,517.5h-11l-18.3,81.9h13.3l3.4-17.2h14.2l3.4,17.2h13.3L350,518.2L349.8,517.5z M339.6,569.6l4.7-24.1
			l4.7,24.1H339.6z"/>
		<polygon class="st1" points="295.2,551.8 282.8,551.8 282.8,517.5 269.5,517.5 269.5,599.4 282.8,599.4 282.8,563.7 295.2,563.7 
			295.2,599.4 308.5,599.4 308.5,517.5 295.2,517.5 		"/>
	</g>
	<g>
		<path class="st1" d="M510.3,328.7c-3.5-4-7.3-7.6-11.5-10.8c-13.6-10.4-30.7-16.6-49.3-16.6c-18.8,0-36.2,6.4-49.9,17.1
			c-4.2,3.3-8,6.9-11.4,10.9c-11.8,13.7-18.9,31.4-18.9,50.7c0,43.4,35.9,78.7,80.1,78.7s80.1-35.2,80.1-78.7
			C529.7,360.4,522.4,342.5,510.3,328.7z M449.5,443c-35.5,0-64.2-28.2-64.2-63c0-15,5.3-28.8,14.2-39.6c3.3-4.1,7.2-7.7,11.5-10.9
			c10.7-7.9,24.1-12.6,38.5-12.6c14.2,0,27.3,4.5,37.9,12.2c4.3,3.1,8.2,6.7,11.6,10.7c9.2,10.9,14.7,24.9,14.7,40.1
			C513.7,414.8,485,443,449.5,443z"/>
		<g>
			<polygon class="st1" points="474.6,381.7 465.1,388.8 474.6,395.2 484.2,388.8 			"/>
			<polygon class="st1" points="425,381.7 415.4,388.8 425,395.2 434.5,388.8 			"/>
			<path class="st1" d="M506.9,379.9c0-13.4-4.8-25.7-12.7-35.4c-3.4-4.1-7.3-7.7-11.7-10.7l-10.7,10.5L449,366.8l-22.4-22
				l-10.7-10.5c-4.3,3.1-8.2,6.7-11.5,10.8c-7.7,9.6-12.3,21.7-12.3,34.8c0,25.6,17.4,47.3,41.3,54.1v-15.4
				c-15.5-6.2-26.5-21.2-26.5-38.7c0-9.1,3-17.6,8-24.4l26.6,26.1V421l0,0v14.7l0,0c2.6,0.4,5.3,0.5,8,0.5s5.4-0.2,8-0.5l0,0V421
				l0,0v-40.4l26.1-25.6c5.3,7,8.5,15.6,8.5,25c0,17.4-10.8,32.2-26.2,38.5v15.4C489.6,427,506.9,405.5,506.9,379.9z"/>
		</g>
	</g>
</g>
</svg>
