<?xml version="1.0" encoding="UTF-8"?>
<svg id="Layer_1" data-name="Layer 1" xmlns="http://www.w3.org/2000/svg" viewBox="0 0 900 900">
  <defs>
    <style>
      .cls-1 {
        fill: #10110b;
      }

      .cls-2 {
        fill: #fdfdf4;
      }
    </style>
  </defs>
  <rect class="cls-1" width="900" height="900"/>
  <path class="cls-2" d="M504.62,364.92v38.64h84.81c8.56,0,15.51-6.94,15.51-15.51v-54.09c0-21.48-17.41-38.89-38.89-38.89h-232.1c-21.47,0-38.88,17.41-38.88,38.88v99.02c0,21.52,17.44,38.96,38.96,38.96h154.87c8.68,0,15.72,7.04,15.72,15.72v45.21h19.87c2.98,0,5.39,2.41,5.39,5.39v5.5c0,3.01-2.44,5.46-5.46,5.46h-146.67c-2.99,0-5.41-2.42-5.41-5.41v-5.61c0-2.94,2.39-5.33,5.33-5.33h15.48v-24.83c0-8.45-6.85-15.29-15.29-15.29h-67.13c-8.65,0-15.66,7.01-15.66,15.66v57.71c0,21.45,17.39,38.83,38.83,38.83h232.2c21.45,0,38.84-17.39,38.84-38.84v-102.75c0-21.53-17.45-38.98-38.98-38.98h-157.32c-8.55,0-15.47-6.93-15.47-15.47v-43.97h-15.43c-2.97,0-5.38-2.41-5.38-5.38v-5.49c0-3.03,2.45-5.48,5.48-5.48h146.73c2.94,0,5.32,2.38,5.32,5.32v5.73c0,2.92-2.37,5.29-5.29,5.29h-19.97Z"/>
</svg>