<svg width="900" height="900" viewBox="0 0 900 900" fill="none" xmlns="http://www.w3.org/2000/svg">
<rect width="900" height="900" fill="#007FFF"/>
<path d="M256.1 551V396.746H319.832V551H256.1ZM287.966 384.338C276.31 384.338 267.004 381.236 260.048 375.032C253.092 368.828 249.614 361.12 249.614 351.908C249.614 342.696 253.092 334.988 260.048 328.784C267.004 322.58 276.31 319.478 287.966 319.478C299.622 319.478 308.928 322.392 315.884 328.22C322.84 334.048 326.318 341.568 326.318 350.78C326.318 360.556 322.84 368.64 315.884 375.032C308.928 381.236 299.622 384.338 287.966 384.338ZM391.508 553.82C378.348 553.82 365.376 552.41 352.592 549.59C339.808 546.77 329.468 543.104 321.572 538.592L339.056 496.574C346.388 500.898 354.848 504.282 364.436 506.726C374.212 509.17 383.706 510.392 392.918 510.392C400.626 510.392 405.796 509.734 408.428 508.418C411.248 507.102 412.658 505.316 412.658 503.06C412.658 500.804 411.06 499.206 407.864 498.266C404.668 497.138 400.438 496.292 395.174 495.728C389.91 495.164 384.082 494.506 377.69 493.754C371.486 492.814 365.188 491.498 358.796 489.806C352.404 488.114 346.576 485.576 341.312 482.192C336.048 478.808 331.818 474.296 328.622 468.656C325.426 462.828 323.828 455.496 323.828 446.66C323.828 436.884 326.742 428.048 332.57 420.152C338.586 412.256 347.422 405.958 359.078 401.258C370.922 396.37 385.492 393.926 402.788 393.926C414.068 393.926 425.348 394.96 436.628 397.028C447.908 399.096 457.59 402.292 465.674 406.616L448.19 448.634C440.294 444.31 432.492 441.396 424.784 439.892C417.264 438.2 410.214 437.354 403.634 437.354C395.55 437.354 390.004 438.106 386.996 439.61C384.176 441.114 382.766 442.806 382.766 444.686C382.766 446.942 384.364 448.634 387.56 449.762C390.756 450.89 394.986 451.736 400.25 452.3C405.514 452.864 411.248 453.616 417.452 454.556C423.844 455.308 430.142 456.624 436.346 458.504C442.738 460.196 448.566 462.734 453.83 466.118C459.094 469.502 463.324 474.108 466.52 479.936C469.716 485.576 471.314 492.814 471.314 501.65C471.314 510.862 468.4 519.51 462.572 527.594C456.744 535.49 447.908 541.882 436.064 546.77C424.22 551.47 409.368 553.82 391.508 553.82ZM580.852 393.926C592.696 393.926 603.412 396.37 613 401.258C622.588 405.958 630.108 413.384 635.56 423.536C641.2 433.688 644.02 446.848 644.02 463.016V551H580.288V474.014C580.288 464.426 578.596 457.658 575.212 453.71C571.828 449.574 567.222 447.506 561.394 447.506C557.07 447.506 553.028 448.54 549.268 450.608C545.696 452.488 542.782 455.684 540.526 460.196C538.458 464.708 537.424 470.818 537.424 478.526V551H473.692V341.756H537.424V441.866L522.196 428.894C528.212 417.238 536.296 408.496 546.448 402.668C556.788 396.84 568.256 393.926 580.852 393.926Z" fill="white"/>
</svg>
