<?xml version="1.0" encoding="UTF-8"?>
<svg id="Layer_1" data-name="Layer 1" xmlns="http://www.w3.org/2000/svg" viewBox="0 0 900 900">
  <defs>
    <style>
      .cls-1 {
        fill: #6b7855;
      }

      .cls-2 {
        fill: #f6f5f2;
      }
    </style>
  </defs>
  <rect class="cls-1" width="900" height="900"/>
  <g>
    <g>
      <path class="cls-2" d="M262.79,329.06c-66.69,0-120.94,54.25-120.94,120.94,0,22.39,6.14,43.37,16.79,61.38.55.93,1.12,1.86,1.7,2.77,12.33,19.61,30.11,35.45,51.22,45.37.12.06.24.11.36.16,15.48,7.21,32.7,11.26,50.87,11.26,66.69,0,120.94-54.25,120.94-120.94s-54.25-120.94-120.94-120.94ZM353.66,495.56c-3.87,7.69-8.69,14.83-14.31,21.25-4.87,5.58-10.33,10.63-16.3,15.03-6.48,4.78-13.54,8.82-21.05,11.97-12.07,5.06-25.31,7.87-39.2,7.87-12.75,0-24.94-2.38-36.19-6.68-7.92-3.03-15.37-7.02-22.2-11.83-6.5-4.58-12.44-9.88-17.7-15.82-5.41-6.1-10.09-12.85-13.92-20.12-6.06-11.51-9.99-24.31-11.23-37.87-.28-3.09-.45-6.21-.45-9.37,0-4.99.38-9.9,1.08-14.7,1.23-8.44,3.49-16.54,6.67-24.18,3.61-8.7,8.41-16.78,14.17-24.07,10.58-13.38,24.43-24.06,40.36-30.78,7.83-3.31,16.16-5.64,24.84-6.89,4.76-.69,9.62-1.06,14.57-1.06,4.08,0,8.11.27,12.07.74,8.66,1.03,16.99,3.15,24.84,6.22,16.97,6.64,31.73,17.7,42.86,31.77,5.76,7.29,10.56,15.37,14.17,24.07,3.17,7.64,5.44,15.74,6.67,24.18.7,4.8,1.08,9.71,1.08,14.7,0,3.16-.17,6.28-.45,9.37-1.19,12.91-4.8,25.13-10.37,36.2Z"/>
      <g>
        <path class="cls-2" d="M297.59,459.37l41.75,57.45c5.62-6.43,10.44-13.56,14.31-21.25l-26.31-36.2h-29.75Z"/>
        <path class="cls-2" d="M256.43,481.14l-52.04,52.04c6.83,4.81,14.28,8.8,22.2,11.83l44.16-44.16-14.32-19.71Z"/>
        <path class="cls-2" d="M242.33,461.73l-1.72-2.36h-29.95l-37.87,37.87c3.83,7.27,8.51,14.02,13.92,20.12l55.63-55.63Z"/>
        <path class="cls-2" d="M363.4,435.3h-201.22c-.7,4.8-1.08,9.71-1.08,14.7,0,3.16.17,6.28.45,9.37h202.48c.28-3.09.45-6.21.45-9.37,0-4.99-.38-9.9-1.08-14.7Z"/>
        <path class="cls-2" d="M299.7,387.05v-31.77c-7.86-3.07-16.18-5.19-24.84-6.22v38h24.84Z"/>
        <path class="cls-2" d="M248.22,387.05v-37.68c-8.68,1.25-17.01,3.59-24.84,6.89v30.78h24.84Z"/>
        <path class="cls-2" d="M270.36,459.37h-29.75l1.72,2.36,14.1,19.41,14.32,19.71,31.23,42.97c7.52-3.15,14.58-7.19,21.05-11.97l-52.68-72.48Z"/>
        <path class="cls-2" d="M342.56,387.05h-94.34s-24.84,0-24.84,0h-40.36c-5.76,7.29-10.56,15.37-14.17,24.07h187.89c-3.61-8.7-8.41-16.78-14.17-24.07Z"/>
      </g>
    </g>
    <g>
      <path class="cls-2" d="M470.96,450.12l-25.89-38.59v38.59h-27.91v-89h27.91v37.46l25.52-37.46h31.55l-30.67,42.61,32.68,46.38h-33.18Z"/>
      <path class="cls-2" d="M520.54,445.1c-7-3.94-12.55-9.38-16.66-16.34-4.11-6.95-6.16-14.79-6.16-23.5s2.05-16.55,6.16-23.51c4.1-6.95,9.66-12.38,16.66-16.28,7-3.9,14.69-5.85,23.07-5.85s16.05,1.95,23,5.85c6.95,3.9,12.46,9.32,16.53,16.28,4.06,6.96,6.1,14.79,6.1,23.51s-2.03,16.55-6.1,23.5c-4.06,6.96-9.59,12.4-16.59,16.34-7,3.94-14.64,5.91-22.94,5.91s-16.07-1.97-23.07-5.91ZM556.43,419.64c3.02-3.56,4.52-8.36,4.52-14.39s-1.51-10.96-4.52-14.52c-3.02-3.56-7.29-5.34-12.82-5.34s-9.93,1.78-12.95,5.34c-3.02,3.56-4.52,8.4-4.52,14.52s1.51,10.83,4.52,14.39c3.02,3.56,7.33,5.35,12.95,5.35s9.8-1.78,12.82-5.35Z"/>
      <path class="cls-2" d="M662.14,361.13v22.12h-34.94v12.32h34.39l-9.25,20.99h-25.14v33.56h-27.91v-89h62.85Z"/>
      <path class="cls-2" d="M718.5,436.67h-29.66l-4.4,13.45h-29.29l32.56-89h32.18l32.43,89h-29.41l-4.4-13.45ZM711.71,415.68l-8.04-24.76-8.04,24.76h16.09Z"/>
    </g>
    <g>
      <path class="cls-2" d="M457.06,498.91c-.82-1.32-1.99-2.35-3.5-3.07-1.51-.72-3.34-1.09-5.48-1.09-4.04,0-7.16,1.31-9.36,3.92-2.21,2.62-3.31,6.19-3.31,10.73,0,5.23,1.23,9.14,3.69,11.73,2.46,2.59,6.24,3.88,11.35,3.88s8.76-1.95,11.73-5.86h-16.74v-14.85h34.14v20.99c-2.9,4.98-6.9,9.25-12.01,12.81-5.11,3.56-11.57,5.34-19.39,5.34-6.94,0-12.97-1.43-18.11-4.3-5.14-2.87-9.08-6.89-11.82-12.06-2.74-5.17-4.11-11.06-4.11-17.68s1.37-12.51,4.11-17.68c2.74-5.17,6.67-9.19,11.77-12.06,5.11-2.87,11.09-4.3,17.97-4.3,8.76,0,15.9,2.11,21.42,6.34,5.52,4.22,8.78,9.96,9.79,17.21h-22.13Z"/>
      <path class="cls-2" d="M502.41,539.2c-5.26-2.96-9.44-7.06-12.53-12.29-3.09-5.23-4.63-11.13-4.63-17.68s1.55-12.45,4.63-17.68c3.09-5.23,7.27-9.32,12.53-12.25,5.26-2.93,11.05-4.4,17.35-4.4s12.07,1.47,17.31,4.4c5.23,2.93,9.38,7.01,12.44,12.25,3.06,5.23,4.59,11.13,4.59,17.68s-1.53,12.45-4.59,17.68c-3.06,5.23-7.22,9.33-12.48,12.29-5.26,2.96-11.02,4.44-17.26,4.44s-12.09-1.48-17.35-4.44ZM529.41,520.05c2.27-2.68,3.4-6.29,3.4-10.83s-1.13-8.24-3.4-10.92c-2.27-2.68-5.48-4.02-9.65-4.02s-7.47,1.34-9.74,4.02c-2.27,2.68-3.4,6.32-3.4,10.92s1.13,8.15,3.4,10.83c2.27,2.68,5.52,4.02,9.74,4.02s7.38-1.34,9.65-4.02Z"/>
      <path class="cls-2" d="M576.92,539.2c-5.26-2.96-9.44-7.06-12.53-12.29-3.09-5.23-4.63-11.13-4.63-17.68s1.55-12.45,4.63-17.68c3.09-5.23,7.27-9.32,12.53-12.25,5.26-2.93,11.05-4.4,17.35-4.4s12.07,1.47,17.31,4.4c5.23,2.93,9.38,7.01,12.44,12.25,3.06,5.23,4.59,11.13,4.59,17.68s-1.53,12.45-4.59,17.68c-3.06,5.23-7.22,9.33-12.48,12.29-5.26,2.96-11.02,4.44-17.26,4.44s-12.09-1.48-17.35-4.44ZM603.92,520.05c2.27-2.68,3.4-6.29,3.4-10.83s-1.13-8.24-3.4-10.92c-2.27-2.68-5.48-4.02-9.65-4.02s-7.47,1.34-9.74,4.02c-2.27,2.68-3.4,6.32-3.4,10.92s1.13,8.15,3.4,10.83c2.27,2.68,5.52,4.02,9.74,4.02s7.38-1.34,9.65-4.02Z"/>
      <path class="cls-2" d="M682.45,480.28c5.26,2.84,9.31,6.78,12.15,11.82,2.84,5.04,4.25,10.78,4.25,17.21s-1.42,12.1-4.25,17.21c-2.84,5.11-6.89,9.13-12.15,12.06-5.26,2.93-11.39,4.4-18.39,4.4h-27.9v-66.95h27.9c7,0,13.13,1.42,18.39,4.26ZM673.42,520.38c2.77-2.58,4.16-6.27,4.16-11.06s-1.39-8.48-4.16-11.07c-2.78-2.58-6.53-3.88-11.25-3.88h-5.01v29.88h5.01c4.73,0,8.48-1.29,11.25-3.88Z"/>
      <path class="cls-2" d="M712.81,538.01c-5.2-3.75-8.02-9.25-8.46-16.5h22.32c.31,3.85,2.02,5.77,5.11,5.77,1.14,0,2.1-.27,2.88-.8.79-.53,1.18-1.37,1.18-2.5,0-1.57-.85-2.85-2.55-3.83-1.7-.98-4.35-2.09-7.94-3.36-4.29-1.51-7.83-2.99-10.64-4.44-2.81-1.45-5.22-3.56-7.23-6.34-2.02-2.77-2.99-6.34-2.93-10.68,0-4.35,1.12-8.05,3.36-11.11,2.24-3.06,5.3-5.37,9.17-6.95,3.88-1.57,8.24-2.36,13.1-2.36,8.19,0,14.7,1.89,19.53,5.67,4.82,3.78,7.36,9.11,7.61,15.98h-22.6c-.06-1.89-.54-3.25-1.42-4.07-.88-.82-1.96-1.23-3.22-1.23-.88,0-1.61.3-2.18.9s-.85,1.43-.85,2.5c0,1.51.83,2.76,2.51,3.74,1.67.98,4.33,2.16,7.99,3.55,4.22,1.58,7.71,3.09,10.45,4.54,2.74,1.45,5.12,3.47,7.14,6.05,2.02,2.59,3.03,5.83,3.03,9.74s-1.01,7.77-3.03,11.02c-2.02,3.25-4.95,5.78-8.79,7.61-3.85,1.83-8.42,2.74-13.71,2.74-8.01,0-14.61-1.87-19.81-5.63Z"/>
    </g>
  </g>
</svg>