<?xml version="1.0" encoding="utf-8"?>
<!-- Generator: Adobe Illustrator 27.0.0, SVG Export Plug-In . SVG Version: 6.00 Build 0)  -->
<svg version="1.1" id="Layer_1" xmlns="http://www.w3.org/2000/svg" xmlns:xlink="http://www.w3.org/1999/xlink" x="0px" y="0px"
	 viewBox="0 0 360 360" style="enable-background:new 0 0 360 360;" xml:space="preserve">
<style type="text/css">
	.st0{fill:#076CB0;}
	.st1{enable-background:new    ;}
	.st2{fill:#E6E7E8;}
</style>
<rect class="st0" width="360" height="360"/>
<g class="st1">
	<path class="st2" d="M94.5,179.4h16.3v9.6H82.1v-51.2h12.5V179.4z"/>
	<path class="st2" d="M127.8,186.1c-4-2.2-7.2-5.4-9.6-9.4c-2.4-4-3.5-8.5-3.5-13.5s1.2-9.5,3.5-13.5c2.4-4,5.5-7.1,9.6-9.3
		s8.4-3.4,13.2-3.4s9.2,1.1,13.2,3.4s7.2,5.3,9.5,9.3c2.3,4,3.5,8.5,3.5,13.5s-1.2,9.5-3.5,13.5s-5.5,7.1-9.5,9.4
		c-4,2.2-8.4,3.4-13.2,3.4S131.8,188.4,127.8,186.1z M150.8,174c2.5-2.7,3.7-6.3,3.7-10.8c0-4.5-1.2-8.1-3.7-10.8
		c-2.5-2.7-5.7-4-9.8-4c-4.1,0-7.4,1.3-9.9,4c-2.5,2.7-3.7,6.3-3.7,10.9c0,4.5,1.2,8.1,3.7,10.8c2.5,2.7,5.7,4,9.9,4
		C145.1,178.1,148.4,176.8,150.8,174z"/>
	<path class="st2" d="M208.1,154c-0.9-1.7-2.2-3-4-3.9c-1.7-0.9-3.8-1.3-6.1-1.3c-4,0-7.3,1.3-9.7,4c-2.4,2.7-3.6,6.2-3.6,10.6
		c0,4.7,1.3,8.4,3.8,11c2.6,2.6,6.1,4,10.5,4c3.1,0,5.6-0.8,7.8-2.3c2.1-1.6,3.7-3.8,4.6-6.7h-15.8v-9.2h27.1v11.6
		c-0.9,3.1-2.5,6-4.7,8.7c-2.2,2.7-5,4.8-8.4,6.5c-3.4,1.7-7.2,2.5-11.5,2.5c-5.1,0-9.6-1.1-13.5-3.3c-4-2.2-7-5.3-9.3-9.2
		c-2.2-3.9-3.3-8.4-3.3-13.5c0-5.1,1.1-9.6,3.3-13.5c2.2-4,5.3-7,9.2-9.3s8.4-3.3,13.5-3.3c6.1,0,11.3,1.5,15.5,4.4
		c4.2,3,7,7.1,8.3,12.3H208.1z"/>
	<path class="st2" d="M240.7,186.1c-4-2.2-7.2-5.4-9.5-9.4c-2.4-4-3.5-8.5-3.5-13.5s1.2-9.5,3.5-13.5c2.4-4,5.5-7.1,9.5-9.3
		s8.4-3.4,13.2-3.4s9.2,1.1,13.2,3.4s7.2,5.3,9.5,9.3c2.3,4,3.5,8.5,3.5,13.5s-1.2,9.5-3.5,13.5s-5.5,7.1-9.5,9.4
		c-4,2.2-8.4,3.4-13.2,3.4S244.7,188.4,240.7,186.1z M263.7,174c2.5-2.7,3.7-6.3,3.7-10.8c0-4.5-1.2-8.1-3.7-10.8
		c-2.5-2.7-5.7-4-9.8-4c-4.1,0-7.4,1.3-9.9,4s-3.7,6.3-3.7,10.9c0,4.5,1.2,8.1,3.7,10.8c2.5,2.7,5.7,4,9.9,4
		C258,178.1,261.2,176.8,263.7,174z"/>
</g>
<g class="st1">
	<path class="st2" d="M123.7,202.9V214h-2.2v-7.3l-3,7.3h-1.7l-3-7.3v7.3h-2.2v-11.2h2.5l3.6,8.3l3.6-8.3H123.7z"/>
	<path class="st2" d="M150.7,211.9h-4.4l-0.7,2.1h-2.4l4-11.2h2.6l4,11.2h-2.4L150.7,211.9z M150.1,210.1l-1.6-4.7l-1.6,4.7H150.1z"
		/>
	<path class="st2" d="M179.1,214l-2.5-4.4h-1.1v4.4h-2.2v-11.2h4.2c0.9,0,1.6,0.2,2.2,0.5s1.1,0.7,1.4,1.2c0.3,0.5,0.5,1.1,0.5,1.7
		c0,0.7-0.2,1.4-0.6,2c-0.4,0.6-1.1,1-1.9,1.2l2.7,4.5H179.1z M175.6,208h1.9c0.6,0,1.1-0.1,1.4-0.4c0.3-0.3,0.4-0.7,0.4-1.2
		c0-0.5-0.1-0.9-0.4-1.2c-0.3-0.3-0.8-0.4-1.4-0.4h-1.9V208z"/>
	<path class="st2" d="M207.9,214l-4.1-5v5h-2.2v-11.2h2.2v5l4.1-5h2.7l-4.6,5.5l4.7,5.6H207.9z"/>
	<path class="st2" d="M231.9,213.7c-0.6-0.3-1.1-0.7-1.5-1.2c-0.4-0.5-0.5-1.1-0.6-1.8h2.4c0,0.5,0.2,0.8,0.5,1.1s0.7,0.4,1.2,0.4
		c0.5,0,0.9-0.1,1.2-0.4c0.3-0.3,0.4-0.6,0.4-1c0-0.3-0.1-0.6-0.3-0.8c-0.2-0.2-0.5-0.4-0.8-0.5c-0.3-0.1-0.7-0.3-1.3-0.4
		c-0.7-0.2-1.3-0.4-1.8-0.6s-0.8-0.5-1.2-0.9c-0.3-0.4-0.5-1-0.5-1.7c0-0.7,0.2-1.2,0.5-1.7c0.3-0.5,0.8-0.9,1.4-1.1
		c0.6-0.3,1.3-0.4,2-0.4c1.2,0,2.1,0.3,2.8,0.8c0.7,0.6,1.1,1.3,1.2,2.3h-2.5c0-0.4-0.2-0.7-0.5-1c-0.3-0.3-0.7-0.4-1.2-0.4
		c-0.4,0-0.8,0.1-1,0.3c-0.3,0.2-0.4,0.5-0.4,1c0,0.3,0.1,0.5,0.3,0.7s0.4,0.4,0.7,0.5c0.3,0.1,0.7,0.3,1.2,0.4
		c0.7,0.2,1.3,0.4,1.8,0.6c0.5,0.2,0.9,0.5,1.2,1c0.3,0.4,0.5,1,0.5,1.7c0,0.6-0.2,1.2-0.5,1.7c-0.3,0.5-0.8,0.9-1.4,1.2
		c-0.6,0.3-1.3,0.5-2.1,0.5C233.3,214.1,232.6,214,231.9,213.7z"/>
</g>
</svg>
