<?xml version="1.0" encoding="utf-8"?>
<!-- Generator: Adobe Illustrator 27.0.0, SVG Export Plug-In . SVG Version: 6.00 Build 0)  -->
<svg version="1.1" id="Layer_1" xmlns="http://www.w3.org/2000/svg" xmlns:xlink="http://www.w3.org/1999/xlink" x="0px" y="0px"
	 viewBox="0 0 360 360" style="enable-background:new 0 0 360 360;" xml:space="preserve">
<style type="text/css">
	.st0{fill:#076CB0;}
	.st1{fill:#FFFFFF;}
</style>
<rect class="st0" width="360" height="360"/>
<g>
	<polygon class="st1" points="147.4,157.4 147.4,168.8 145.3,168.8 139.6,161.9 139.6,168.8 137,168.8 137,157.4 139.2,157.4 
		144.8,164.3 144.8,157.4 147.4,157.4 	"/>
	<path class="st1" d="M157.4,166.4h-5.3l-1,2.5h-2.7l5.1-11.4h2.6l5.1,11.4h-2.8L157.4,166.4L157.4,166.4z M156.6,164.4l-1.8-4.4
		l-1.8,4.4H156.6L156.6,164.4z"/>
	<polygon class="st1" points="163.1,159.5 159.5,159.5 159.5,157.4 169.4,157.4 169.4,159.5 165.8,159.5 165.8,168.8 163.1,168.8 
		163.1,159.5 	"/>
	<polygon class="st1" points="170.9,157.4 173.6,157.4 173.6,168.8 170.9,168.8 170.9,157.4 	"/>
	<path class="st1" d="M178.4,168.3c-0.9-0.5-1.7-1.2-2.2-2.1c-0.5-0.9-0.8-1.9-0.8-3c0-1.1,0.3-2.1,0.8-3c0.5-0.9,1.3-1.6,2.2-2.1
		c0.9-0.5,2-0.8,3.2-0.8c1.2,0,2.2,0.3,3.2,0.8c0.9,0.5,1.7,1.2,2.2,2.1c0.5,0.9,0.8,1.9,0.8,3c0,1.1-0.3,2.1-0.8,3
		c-0.5,0.9-1.3,1.6-2.2,2.1c-0.9,0.5-2,0.8-3.2,0.8C180.4,169,179.3,168.8,178.4,168.3 M183.4,166.3c0.5-0.3,1-0.7,1.3-1.3
		c0.3-0.6,0.5-1.2,0.5-1.9c0-0.7-0.2-1.3-0.5-1.9c-0.3-0.6-0.7-1-1.3-1.3c-0.5-0.3-1.1-0.5-1.8-0.5c-0.7,0-1.3,0.2-1.8,0.5
		c-0.5,0.3-1,0.7-1.3,1.3c-0.3,0.6-0.5,1.2-0.5,1.9c0,0.7,0.2,1.3,0.5,1.9c0.3,0.6,0.7,1,1.3,1.3c0.5,0.3,1.1,0.5,1.8,0.5
		C182.2,166.8,182.8,166.6,183.4,166.3"/>
	<polygon class="st1" points="199.8,157.4 199.8,168.8 197.6,168.8 191.9,161.9 191.9,168.8 189.3,168.8 189.3,157.4 191.5,157.4 
		197.1,164.3 197.1,157.4 199.8,157.4 	"/>
	<path class="st1" d="M209.8,166.4h-5.3l-1,2.5h-2.7l5.1-11.4h2.6l5.1,11.4h-2.8L209.8,166.4L209.8,166.4z M208.9,164.4l-1.8-4.4
		l-1.8,4.4H208.9L208.9,164.4z"/>
	<polygon class="st1" points="214.6,157.4 217.2,157.4 217.2,166.7 223.1,166.7 223.1,168.8 214.6,168.8 214.6,157.4 	"/>
	<path class="st1" d="M144.5,183.2h-5.3l-1,2.5h-2.7l5.1-11.4h2.6l5.1,11.4h-2.8L144.5,183.2L144.5,183.2z M143.6,181.2l-1.8-4.4
		l-1.8,4.4H143.6L143.6,181.2z"/>
	<path class="st1" d="M150.7,185.5c-0.8-0.2-1.5-0.6-2-1l0.9-2c0.5,0.4,1.1,0.6,1.7,0.9c0.7,0.2,1.3,0.3,2,0.3
		c0.7,0,1.3-0.1,1.7-0.3c0.4-0.2,0.5-0.5,0.5-0.9c0-0.3-0.1-0.5-0.3-0.7c-0.2-0.2-0.5-0.3-0.8-0.4c-0.3-0.1-0.8-0.2-1.3-0.4
		c-0.9-0.2-1.6-0.4-2.1-0.6c-0.6-0.2-1-0.5-1.4-1c-0.4-0.5-0.6-1.1-0.6-1.8c0-0.7,0.2-1.3,0.5-1.8c0.4-0.5,0.9-1,1.6-1.3
		c0.7-0.3,1.6-0.5,2.6-0.5c0.7,0,1.4,0.1,2.1,0.3c0.7,0.2,1.3,0.4,1.8,0.8l-0.8,2c-1.1-0.6-2.1-0.9-3.2-0.9c-0.7,0-1.3,0.1-1.6,0.4
		c-0.4,0.2-0.5,0.6-0.5,0.9c0,0.4,0.2,0.7,0.6,0.9c0.4,0.2,1,0.4,1.9,0.6c0.9,0.2,1.6,0.4,2.1,0.6c0.6,0.2,1,0.5,1.4,1
		c0.4,0.4,0.6,1.1,0.6,1.8c0,0.7-0.2,1.3-0.5,1.8c-0.4,0.5-0.9,1-1.6,1.3c-0.7,0.3-1.6,0.5-2.7,0.5
		C152.4,185.9,151.5,185.8,150.7,185.5"/>
	<path class="st1" d="M160.9,185.5c-0.8-0.2-1.5-0.6-2-1l0.9-2c0.5,0.4,1.1,0.6,1.7,0.9c0.7,0.2,1.3,0.3,2,0.3
		c0.7,0,1.3-0.1,1.7-0.3c0.4-0.2,0.5-0.5,0.5-0.9c0-0.3-0.1-0.5-0.3-0.7c-0.2-0.2-0.5-0.3-0.8-0.4c-0.3-0.1-0.8-0.2-1.3-0.4
		c-0.9-0.2-1.6-0.4-2.1-0.6c-0.6-0.2-1-0.5-1.4-1c-0.4-0.5-0.6-1.1-0.6-1.8c0-0.7,0.2-1.3,0.5-1.8c0.4-0.5,0.9-1,1.6-1.3
		c0.7-0.3,1.6-0.5,2.6-0.5c0.7,0,1.4,0.1,2.1,0.3c0.7,0.2,1.3,0.4,1.8,0.8l-0.8,2c-1.1-0.6-2.1-0.9-3.2-0.9c-0.7,0-1.3,0.1-1.6,0.4
		c-0.4,0.2-0.5,0.6-0.5,0.9c0,0.4,0.2,0.7,0.6,0.9c0.4,0.2,1,0.4,1.9,0.6c0.9,0.2,1.6,0.4,2.1,0.6c0.6,0.2,1,0.5,1.4,1
		c0.4,0.4,0.6,1.1,0.6,1.8c0,0.7-0.2,1.3-0.5,1.8c-0.4,0.5-0.9,1-1.6,1.3c-0.7,0.3-1.6,0.5-2.7,0.5
		C162.7,185.9,161.8,185.8,160.9,185.5"/>
	<path class="st1" d="M172.3,185.1c-0.9-0.5-1.7-1.2-2.2-2.1c-0.5-0.9-0.8-1.9-0.8-3s0.3-2.1,0.8-3c0.5-0.9,1.3-1.6,2.2-2.1
		c0.9-0.5,2-0.8,3.2-0.8c1.2,0,2.2,0.3,3.2,0.8c0.9,0.5,1.7,1.2,2.2,2.1c0.5,0.9,0.8,1.9,0.8,3s-0.3,2.1-0.8,3
		c-0.5,0.9-1.3,1.6-2.2,2.1c-0.9,0.5-2,0.8-3.2,0.8C174.3,185.9,173.2,185.6,172.3,185.1 M177.3,183.1c0.5-0.3,1-0.7,1.3-1.3
		c0.3-0.6,0.5-1.2,0.5-1.9c0-0.7-0.2-1.3-0.5-1.9c-0.3-0.6-0.7-1-1.3-1.3c-0.5-0.3-1.1-0.5-1.8-0.5c-0.7,0-1.3,0.2-1.8,0.5
		c-0.5,0.3-1,0.7-1.3,1.3c-0.3,0.6-0.5,1.2-0.5,1.9c0,0.7,0.2,1.3,0.5,1.9c0.3,0.6,0.7,1,1.3,1.3c0.5,0.3,1.1,0.5,1.8,0.5
		C176.2,183.6,176.8,183.5,177.3,183.1"/>
	<path class="st1" d="M185.8,185.1c-0.9-0.5-1.7-1.2-2.2-2.1c-0.5-0.9-0.8-1.9-0.8-3c0-1.1,0.3-2.2,0.8-3.1c0.5-0.9,1.3-1.6,2.2-2.1
		c0.9-0.5,2-0.8,3.2-0.8c1,0,1.9,0.2,2.7,0.5c0.8,0.3,1.5,0.9,2,1.5l-1.7,1.6c-0.8-0.9-1.7-1.3-2.9-1.3c-0.7,0-1.3,0.2-1.9,0.5
		c-0.6,0.3-1,0.7-1.3,1.3c-0.3,0.6-0.5,1.2-0.5,1.9c0,0.7,0.2,1.3,0.5,1.9c0.3,0.6,0.7,1,1.3,1.3c0.6,0.3,1.2,0.5,1.9,0.5
		c1.1,0,2.1-0.5,2.9-1.4l1.7,1.6c-0.5,0.7-1.2,1.2-2,1.5c-0.8,0.3-1.7,0.5-2.7,0.5C187.8,185.9,186.7,185.6,185.8,185.1"/>
	<polygon class="st1" points="195.1,174.2 197.8,174.2 197.8,185.7 195.1,185.7 195.1,174.2 	"/>
	<path class="st1" d="M208,183.2h-5.3l-1,2.5H199l5.1-11.4h2.6l5.1,11.4H209L208,183.2L208,183.2z M207.1,181.2l-1.8-4.4l-1.8,4.4
		H207.1L207.1,181.2z"/>
	<polygon class="st1" points="213.7,176.4 210,176.4 210,174.2 219.9,174.2 219.9,176.4 216.3,176.4 216.3,185.7 213.7,185.7 
		213.7,176.4 	"/>
	<polygon class="st1" points="221.5,174.2 224.1,174.2 224.1,185.7 221.5,185.7 221.5,174.2 	"/>
	<path class="st1" d="M228.9,185.1c-0.9-0.5-1.7-1.2-2.2-2.1c-0.5-0.9-0.8-1.9-0.8-3s0.3-2.1,0.8-3c0.5-0.9,1.3-1.6,2.2-2.1
		c0.9-0.5,2-0.8,3.2-0.8c1.2,0,2.2,0.3,3.2,0.8c0.9,0.5,1.7,1.2,2.2,2.1c0.5,0.9,0.8,1.9,0.8,3s-0.3,2.1-0.8,3
		c-0.5,0.9-1.3,1.6-2.2,2.1c-0.9,0.5-2,0.8-3.2,0.8C230.9,185.9,229.8,185.6,228.9,185.1 M233.9,183.1c0.5-0.3,1-0.7,1.3-1.3
		s0.5-1.2,0.5-1.9c0-0.7-0.2-1.3-0.5-1.9c-0.3-0.6-0.7-1-1.3-1.3c-0.5-0.3-1.1-0.5-1.8-0.5c-0.7,0-1.3,0.2-1.8,0.5
		c-0.5,0.3-1,0.7-1.3,1.3c-0.3,0.6-0.5,1.2-0.5,1.9c0,0.7,0.2,1.3,0.5,1.9c0.3,0.6,0.7,1,1.3,1.3c0.5,0.3,1.1,0.5,1.8,0.5
		C232.8,183.6,233.4,183.5,233.9,183.1"/>
	<polygon class="st1" points="250.3,174.2 250.3,185.7 248.1,185.7 242.4,178.7 242.4,185.7 239.8,185.7 239.8,174.2 242,174.2 
		247.7,181.2 247.7,174.2 250.3,174.2 	"/>
	<path class="st1" d="M259.4,185.1c-0.9-0.5-1.7-1.2-2.2-2.1c-0.5-0.9-0.8-1.9-0.8-3s0.3-2.1,0.8-3c0.5-0.9,1.3-1.6,2.2-2.1
		c0.9-0.5,2-0.8,3.2-0.8c1.2,0,2.2,0.3,3.2,0.8c0.9,0.5,1.7,1.2,2.2,2.1c0.5,0.9,0.8,1.9,0.8,3s-0.3,2.1-0.8,3
		c-0.5,0.9-1.3,1.6-2.2,2.1c-0.9,0.5-2,0.8-3.2,0.8C261.4,185.9,260.4,185.6,259.4,185.1 M264.4,183.1c0.5-0.3,1-0.7,1.3-1.3
		c0.3-0.6,0.5-1.2,0.5-1.9c0-0.7-0.2-1.3-0.5-1.9c-0.3-0.6-0.7-1-1.3-1.3c-0.5-0.3-1.1-0.5-1.8-0.5c-0.7,0-1.3,0.2-1.8,0.5
		c-0.5,0.3-1,0.7-1.3,1.3c-0.3,0.6-0.5,1.2-0.5,1.9c0,0.7,0.2,1.3,0.5,1.9s0.7,1,1.3,1.3c0.5,0.3,1.1,0.5,1.8,0.5
		C263.3,183.6,263.9,183.5,264.4,183.1"/>
	<polygon class="st1" points="273.2,176.4 273.2,179.4 278.4,179.4 278.4,181.5 273.2,181.5 273.2,185.7 270.5,185.7 270.5,174.2 
		279.1,174.2 279.1,176.4 273.2,176.4 	"/>
	<path class="st1" d="M144.2,202.5l-2.2-3.2h-0.1h-2.3v3.2H137v-11.4h4.9c1,0,1.9,0.2,2.6,0.5c0.7,0.3,1.3,0.8,1.7,1.4
		c0.4,0.6,0.6,1.4,0.6,2.2c0,0.9-0.2,1.6-0.6,2.2c-0.4,0.6-1,1.1-1.7,1.4l2.6,3.7H144.2L144.2,202.5z M143.6,193.8
		c-0.4-0.3-1-0.5-1.8-0.5h-2.1v4h2.1c0.8,0,1.4-0.2,1.8-0.5c0.4-0.3,0.6-0.8,0.6-1.5C144.2,194.6,144,194.1,143.6,193.8"/>
	<polygon class="st1" points="157.5,200.4 157.5,202.5 148.7,202.5 148.7,191.1 157.3,191.1 157.3,193.2 151.3,193.2 151.3,195.7 
		156.6,195.7 156.6,197.7 151.3,197.7 151.3,200.4 157.5,200.4 	"/>
	<path class="st1" d="M167.3,200.1H162l-1,2.5h-2.7l5.1-11.4h2.6l5.1,11.4h-2.8L167.3,200.1L167.3,200.1z M166.4,198.1l-1.8-4.4
		l-1.8,4.4H166.4L166.4,198.1z"/>
	<polygon class="st1" points="172.1,191.1 174.7,191.1 174.7,200.4 180.4,200.4 180.4,202.5 172.1,202.5 172.1,191.1 	"/>
	<polygon class="st1" points="182.6,193.2 179,193.2 179,191.1 188.9,191.1 188.9,193.2 185.3,193.2 185.3,202.5 182.6,202.5 
		182.6,193.2 	"/>
	<path class="st1" d="M192.2,202c-0.9-0.5-1.7-1.2-2.2-2.1c-0.5-0.9-0.8-1.9-0.8-3c0-1.1,0.3-2.1,0.8-3c0.5-0.9,1.3-1.6,2.2-2.1
		c0.9-0.5,2-0.8,3.2-0.8c1.2,0,2.2,0.3,3.2,0.8c0.9,0.5,1.7,1.2,2.2,2.1c0.5,0.9,0.8,1.9,0.8,3c0,1.1-0.3,2.1-0.8,3
		c-0.5,0.9-1.3,1.6-2.2,2.1c-0.9,0.5-2,0.8-3.2,0.8C194.2,202.7,193.2,202.5,192.2,202 M197.2,200c0.5-0.3,1-0.7,1.3-1.3
		c0.3-0.6,0.5-1.2,0.5-1.9c0-0.7-0.2-1.3-0.5-1.9c-0.3-0.6-0.7-1-1.3-1.3c-0.5-0.3-1.1-0.5-1.8-0.5c-0.7,0-1.3,0.2-1.8,0.5
		c-0.5,0.3-1,0.7-1.3,1.3c-0.3,0.6-0.5,1.2-0.5,1.9c0,0.7,0.2,1.3,0.5,1.9c0.3,0.6,0.7,1,1.3,1.3c0.5,0.3,1.1,0.5,1.8,0.5
		C196.1,200.5,196.7,200.3,197.2,200"/>
	<path class="st1" d="M210.6,202.5l-2.2-3.2h-0.1h-2.3v3.2h-2.6v-11.4h4.9c1,0,1.9,0.2,2.6,0.5c0.7,0.3,1.3,0.8,1.7,1.4
		c0.4,0.6,0.6,1.4,0.6,2.2c0,0.9-0.2,1.6-0.6,2.2c-0.4,0.6-1,1.1-1.7,1.4l2.6,3.7H210.6L210.6,202.5z M209.9,193.8
		c-0.4-0.3-1-0.5-1.8-0.5h-2.1v4h2.1c0.8,0,1.4-0.2,1.8-0.5c0.4-0.3,0.6-0.8,0.6-1.5C210.5,194.6,210.3,194.1,209.9,193.8"/>
	<path class="st1" d="M216.2,202.4c-0.8-0.2-1.5-0.6-2-1l0.9-2c0.5,0.4,1.1,0.6,1.7,0.9c0.7,0.2,1.3,0.3,2,0.3
		c0.7,0,1.3-0.1,1.7-0.3c0.4-0.2,0.5-0.5,0.5-0.9c0-0.3-0.1-0.5-0.3-0.7c-0.2-0.2-0.5-0.3-0.8-0.4c-0.3-0.1-0.8-0.2-1.3-0.4
		c-0.9-0.2-1.6-0.4-2.1-0.6c-0.6-0.2-1-0.5-1.4-1c-0.4-0.5-0.6-1.1-0.6-1.8c0-0.7,0.2-1.3,0.5-1.8c0.4-0.5,0.9-1,1.6-1.3
		c0.7-0.3,1.6-0.5,2.6-0.5c0.7,0,1.4,0.1,2.1,0.3c0.7,0.2,1.3,0.4,1.8,0.8l-0.8,2c-1.1-0.6-2.1-0.9-3.2-0.9c-0.7,0-1.3,0.1-1.6,0.4
		c-0.4,0.2-0.5,0.6-0.5,0.9c0,0.4,0.2,0.7,0.6,0.9c0.4,0.2,1,0.4,1.9,0.6c0.9,0.2,1.6,0.4,2.1,0.6c0.6,0.2,1,0.5,1.4,1
		c0.4,0.4,0.6,1.1,0.6,1.8c0,0.7-0.2,1.3-0.5,1.8c-0.4,0.5-0.9,1-1.6,1.3c-0.7,0.3-1.6,0.5-2.7,0.5
		C217.9,202.7,217.1,202.6,216.2,202.4"/>
	<path class="st1" d="M229.9,190.8c0.5,0.3,0.9,0.7,1.2,1.2c0.3,0.5,0.4,1.1,0.4,1.7c0,0.6-0.1,1.2-0.4,1.7
		c-0.3,0.5-0.7,0.9-1.2,1.2c-0.5,0.3-1.1,0.4-1.7,0.4c-0.6,0-1.2-0.1-1.7-0.4c-0.5-0.3-0.9-0.7-1.2-1.2c-0.3-0.5-0.4-1.1-0.4-1.7
		s0.1-1.2,0.4-1.7c0.3-0.5,0.7-0.9,1.2-1.2c0.5-0.3,1.1-0.4,1.7-0.4C228.8,190.4,229.4,190.5,229.9,190.8 M229.5,196.1
		c0.4-0.2,0.7-0.6,1-1c0.2-0.4,0.4-0.9,0.4-1.4c0-0.5-0.1-1-0.3-1.4c-0.2-0.4-0.6-0.7-1-1c-0.4-0.2-0.9-0.4-1.4-0.4
		c-0.5,0-1,0.1-1.4,0.4c-0.4,0.2-0.7,0.6-1,1c-0.2,0.4-0.4,0.9-0.4,1.4c0,0.5,0.1,1,0.4,1.4c0.2,0.4,0.6,0.8,1,1
		c0.4,0.2,0.9,0.4,1.4,0.4C228.7,196.5,229.1,196.4,229.5,196.1 M229.7,193.9c-0.1,0.2-0.3,0.3-0.5,0.5l0.8,1.2h-1l-0.7-1.1h0h-0.6
		v1.1h-1v-3.7h1.6c0.5,0,0.9,0.1,1.2,0.4c0.3,0.2,0.4,0.6,0.4,1C229.9,193.5,229.9,193.7,229.7,193.9 M228.2,193.8
		c0.2,0,0.4,0,0.5-0.1c0.1-0.1,0.2-0.2,0.2-0.4c0-0.2-0.1-0.3-0.2-0.4c-0.1-0.1-0.3-0.2-0.5-0.2h-0.6v1.2H228.2L228.2,193.8z"/>
	<path class="st1" d="M104.6,197.3v-17.2l17.3,17.2H104.6L104.6,197.3z M109.5,162.5c4.5,0,9.1,3.2,9.1,9c0,6.9-6.2,8.5-9.2,8.4
		l-4.9,0l0-17.4H109.5L109.5,162.5z M99.8,197.2H87.2v-34.8h12.6L99.8,197.2L99.8,197.2z M125.2,156.2H80.9v47.6l44.3,0V156.2
		L125.2,156.2z"/>
</g>
</svg>
