<?xml version="1.0" encoding="utf-8"?>
<!-- Generator: Adobe Illustrator 27.0.0, SVG Export Plug-In . SVG Version: 6.00 Build 0)  -->
<svg version="1.1" id="Layer_1" xmlns="http://www.w3.org/2000/svg" xmlns:xlink="http://www.w3.org/1999/xlink" x="0px" y="0px"
	 viewBox="0 0 1024 1024" style="enable-background:new 0 0 1024 1024;" xml:space="preserve">
<style type="text/css">
	.st0{fill:#EFE8D5;}
	.st1{fill:#EAEAEA;}
	.st2{fill:#020256;}
	.st3{fill:#CE0256;}
</style>
<rect class="st0" width="1024" height="1024"/>
<path class="st1" d="M289.7,125"/>
<g>
	<path class="st2" d="M350.2,459.2c-13-7.5-28.1-11.3-45.6-11.3c-16.8,0-31.8,3.8-44.8,11.5s-23,17.9-29.9,30.6
		s-10.3,27.9-10.3,45.6c0,26.9,7.5,48.2,22.7,64c15.6,16.6,36.6,24.8,63,24.8c25.9,0,46.6-8.2,62-24.7
		c15.5-16.4,23.2-37.8,23.2-64.1c0-17.5-3.5-32.6-10.5-45.7C373.1,477,363.1,466.8,350.2,459.2z M327.4,575.4
		c-6.4,8.4-14.1,12.5-23.1,12.5c-5.8,0-11.1-1.8-16-5.6c-4.8-3.7-8.6-9.4-11.4-17.2s-4.1-17.6-4.1-29.3c0-11.5,1.4-20.9,4.2-28.3
		c2.8-7.4,6.8-13,11.9-16.9c5.1-3.8,10.5-5.8,16.4-5.8c9.3,0,16.9,4.3,22.8,12.9s8.9,21.5,8.9,38.5C337,554,333.8,567,327.4,575.4z"
		/>
</g>
<g>
	<path class="st2" d="M573.5,586.9c-1.7-0.8-2.8-2-3.6-3.7s-1.2-5.5-1.2-11.5v-70.2c0-12.7-1.8-22.5-5.2-29.4s-9-12.7-16.6-17.3
		c-7.6-4.6-16.3-6.9-26.3-6.9c-8.5,0-17,1.6-25.2,4.8c-8.2,3.2-18.1,9-29.6,17.7V448h-14.2c-16,7-33.1,11.9-51.4,14.4v32.5h22.7
		v78.5c0,4.9-0.4,8.3-1.3,10c-0.8,1.7-2.2,2.8-3.8,3.5c-1.7,0.7-6,1-13,1h-4.4v32.5h88.8v-32.5h-4.9c-5.4,0-8.9-0.8-10.4-2.5
		c-1.4-1.7-2.2-6.2-2.2-13.5V505c8.4-6.6,15.2-11,20.2-13.1c5-2.2,9.7-3.2,14-3.2c5.3,0,9.2,2,11.6,5.9c1.5,2.3,2.3,7.5,2.3,15.5
		v61.8c0,5.9-0.4,9.9-1.3,11.6c-0.8,1.8-2.5,3.1-5,3.8c-0.8,0.3-4.6,0.4-11.5,0.5v32.5h90v-32.5h-7.5
		C578.4,587.8,574.7,587.5,573.5,586.9z"/>
</g>
<g>
	<path class="st2" d="M710,578.6c-8,4.5-15.5,6.9-22.3,6.9c-10.7,0-19.7-4.4-27.2-13.2c-7.4-8.9-11.2-20.4-11.4-34.7H752
		c0-10-0.3-17.3-0.9-21.9c-1.4-9.2-4-18.1-7.9-26.8c-3.8-8.6-8.9-16-15.1-22c-6.3-6.1-13.5-10.7-21.9-14s-17.6-4.9-27.8-4.9
		c-16,0-30.4,3.8-43,11.4s-22.5,18.1-29.7,31.5c-7.1,13.5-10.7,28.3-10.7,44.5c0,24.7,7.9,45.7,23.8,63
		c15.9,17.4,35.5,26.1,58.7,26.1c14.5,0,27.9-3.4,40.5-10.2c12.5-6.8,24.8-17.8,36.8-33l-21-23.2C726,567.1,718,574,710,578.6z
		 M656.2,493.6c2.4-4,5.6-7.3,9.6-9.6c4-2.3,8.1-3.5,12.5-3.5c4.1,0,8,1.2,11.7,3.4c3.8,2.3,6.7,5.4,8.9,9.3s3.7,9.2,4.3,16h-51.7
		C652.3,502.8,653.8,497.7,656.2,493.6z"/>
</g>
<g>
	<path class="st3" d="M778.7,422.8c-4.6-0.6-9.1,3.5-12,6.6c-2.1-3.7-5.7-8.7-10.2-9.3c-7.7-0.9-14.6,4.5-15.6,12.2l-0.2,1.1
		c-0.5,4.2,0.9,8.1,3.5,11l0,0l16.4,23.1l23.4-17.6c0,0,6.3-5.9,6.8-10.5l0.2-1.1C791.9,430.7,786.4,423.8,778.7,422.8z"/>
</g>
<g>
	<path d="M750.4,607.7H748v-0.9h6v0.9h-2.5v7.2h-1.1V607.7z"/>
	<path d="M761.7,611.4c-0.1-1.1-0.1-2.5-0.1-3.5h0c-0.3,0.9-0.6,2-1,3.1l-1.4,3.9h-0.8L757,611c-0.4-1.1-0.7-2.2-0.9-3.1h0
		c0,1-0.1,2.4-0.2,3.6l-0.2,3.5h-1l0.6-8.1h1.3l1.4,3.9c0.3,1,0.6,1.9,0.8,2.7h0c0.2-0.8,0.5-1.7,0.9-2.7l1.4-3.9h1.3l0.5,8.1h-1
		L761.7,611.4z"/>
</g>
</svg>
